<?xml version="1.0" encoding="utf-8"?>
<!-- Generator: Adobe Illustrator 16.0.0, SVG Export Plug-In . SVG Version: 6.00 Build 0)  -->
<!DOCTYPE svg PUBLIC "-//W3C//DTD SVG 1.1//EN" "http://www.w3.org/Graphics/SVG/1.1/DTD/svg11.dtd">
<svg version="1.1" id="Layer_1" xmlns="http://www.w3.org/2000/svg" xmlns:xlink="http://www.w3.org/1999/xlink" x="0px" y="0px"
	 width="723.531px" height="685.57px" viewBox="0 0 723.531 685.57" enable-background="new 0 0 723.531 685.57"
	 xml:space="preserve">
<g>
	<defs>
		<rect id="SVGID_1_" width="723.531" height="685.57"/>
	</defs>
	<clipPath id="SVGID_2_">
		<use xlink:href="#SVGID_1_"  overflow="visible"/>
	</clipPath>
	<path clip-path="url(#SVGID_2_)" fill="#FFFFFF" d="M717.34,598.389l-0.061-0.91c-0.14-2.21-0.27-4.279-0.239-6.229l-2.16-19.941
		c-0.11-0.929-0.229-1.88-0.351-2.83c-6.049-47.409-21.359-92.55-45.51-134.17c-24.14-41.62-55.68-77.259-93.74-105.91
		c-8.239-6.2-16.879-12.139-25.689-17.639l-1.25-0.77l-0.061-1.471c-0.409-10.38-1.289-20.87-2.609-31.17
		c-6.061-47.42-21.37-92.56-45.51-134.17c-24.141-41.62-55.68-77.259-93.74-105.91c-4.37-3.29-8.92-6.549-13.52-9.69l-0.521-0.35
		l-0.93-0.5c-4.48-3.179-9.101-5.98-13.561-8.699l-0.939-0.57c-0.61-0.37-1.22-0.75-1.83-1.12l-0.58-0.361
		c-0.761-0.46-1.53-0.92-2.29-1.369l-2.15-1.241c-1.199-0.69-2.27-1.31-3.31-1.93L366.07,11c-0.86-0.52-1.59-0.989-2.26-1.44
		l-4.44-3.04l-11.36,6.38c-2.49,1.401-4.68,2.651-6.699,3.821c-0.381,0.219-0.731,0.429-1.041,0.62l-0.92,0.58
		c-0.869,0.55-1.69,1.11-2.48,1.639c-1.65,1.12-3.19,2.161-4.61,2.861l-0.12,0.07L313,35.96c-26.471,20.05-50.04,43.82-69.99,70.599
		c-27.529,36.931-47.44,78.39-59.19,123.23c-6.99,26.66-10.91,54.02-11.65,81.321l-0.04,1.469l-1.24,0.79
		c-36.079,23.15-67.34,52.28-92.89,86.581c-27.53,36.939-47.439,78.399-59.189,123.221c-4.511,17.24-7.782,34.96-9.702,52.67
		c0,0-1.599,20.96-1.599,21.389l0.019,0.562c0.021,0.409,0.061,1.898,0.061,1.898C7.63,601.28,5.52,627.5,5.52,627.5l6.78,2.87
		c2.261,1.318,4.54,2.568,6.75,3.778c1.729,0.95,3.28,1.812,4.83,2.682c1.399,0.8,2.78,1.46,3.71,1.89l0.12,0.07
		c2.399,1.269,4.91,2.559,7.691,3.938l16.958,7.901c16.271,7.049,33.301,12.96,50.551,17.53c29.71,7.869,60.19,11.858,90.571,11.858
		c15.039,0,30.269-0.989,45.269-2.92c42.89-5.54,84.029-18.809,122.3-39.46l1.28-0.689l1.3,0.671
		c23.14,12.04,47.75,21.559,73.149,28.278c29.711,7.87,60.181,11.861,90.561,11.861c15.04,0,30.28-0.991,45.28-2.92
		c34.42-4.441,67.93-13.941,99.569-28.22l18.08-8.5c5.41-3.16,10.931-6.352,16.271-9.432l5.96-3.449l4.92-2.681v-0.319l0.51-0.311
		l0.061-4.83C718.07,610.72,717.71,604.359,717.34,598.389 M215.34,283.659c5.23-45.879,20.84-90.799,45.13-129.93
		c24.35-39.199,57.73-73.07,96.54-97.94l1.45-0.929l1.47,0.909c43.051,26.701,79.33,64,104.91,107.87
		c21.41,36.741,34.891,76.491,40.061,118.15l0.58,4.73l-4.381-1.87c-15.89-6.8-32.479-12.5-49.289-16.929
		c-29.421-7.75-59.61-11.681-89.711-11.681c-14.89,0-29.979,0.971-44.84,2.881c-33.91,4.349-66.901,13.619-98.08,27.55l-4.38,1.959
		L215.34,283.659z M315.68,611.319c-38.61,16.562-81.11,25.312-122.91,25.312c-49.56,0-99.13-11.941-143.34-34.521l-1.56-0.8
		l0.06-1.74c1.599-45.89,13.49-91.648,34.381-132.349c20.849-40.621,50.939-76.71,87-104.38l3.809-2.92l0.58,4.759
		c0.079,0.63,0.15,1.26,0.24,1.892c6.01,46.799,21.2,91.358,45.15,132.439c23.96,41.089,55.25,76.259,93.01,104.54
		c1.36,1.019,2.73,2.03,4.11,3.03l3.91,2.84L315.68,611.319z M363.609,586.809l-1.47,0.941l-1.48-0.92
		c-43.44-26.941-80.06-64.602-105.9-108.91c-25.27-43.361-39.96-92.7-42.46-142.671l-0.09-1.75l1.55-0.82
		c45.44-24.25,96.59-37.069,147.93-37.069c50.271,0,100.5,12.17,145.261,35.19l1.569,0.81l-0.069,1.759
		c-2.011,50.931-16.28,100.971-41.28,144.721C442.16,521.849,406.35,559.439,363.609,586.809 M674.88,597.95
		c-44.68,23.841-94.97,36.439-145.45,36.439c-40.3,0-81.439-8.16-118.96-23.58l-4.43-1.83l3.84-2.87
		c26.64-19.869,50.26-43.448,70.2-70.09c27.07-36.139,46.65-76.698,58.199-120.54c4.4-16.679,7.591-33.79,9.48-50.859l0.52-4.699
		l3.801,2.82c33.47,24.83,61.22,55.908,82.49,92.379c24.85,42.631,39.279,91.141,41.74,140.291l0.09,1.72L674.88,597.95z"/>
</g>
<g>
	<defs>
		<path id="SVGID_3_" d="M39.082,607.706C40.399,504.24,90.706,404.329,181.48,343.438c0.471,7.13,1.163,14.261,2.075,21.39
			c5.909,46.004,20.844,89.815,44.401,130.215c23.552,40.401,54.321,74.986,91.443,102.788c6.632,4.963,13.411,9.672,20.336,14.126
			c-46.526,23.585-96.452,34.856-145.817,34.856C139.909,646.814,86.571,633.323,39.082,607.706 M384.815,611.551
			c33.188-21.939,62.004-49.083,85.838-80.91c26.852-35.854,46.277-76.09,57.738-119.597c6.077-23.073,9.751-46.452,11.011-69.945
			c41.004,26.674,76.546,63.04,102.818,108.097c28.262,48.477,42.47,101.332,43.905,153.827
			c-50.021,28.149-104.509,41.55-158.332,41.55C478.236,644.575,429.243,633.214,384.815,611.551 M247.264,483.787
			c-28.261-48.475-42.481-101.324-43.921-153.818c100.509-56.565,219.049-53.584,314.007-2.011
			c-1.891,107.559-57.205,211.732-155.119,271.461C316.099,572.232,276.099,533.243,247.264,483.787 M358.376,43.939
			c46.133,27.189,86.146,66.167,114.983,115.625c26.269,45.059,40.405,93.908,43.422,142.727
			c-21.067-10.476-43.223-18.793-66.297-24.874c-43.506-11.459-88.095-14.376-132.523-8.672
			c-40.03,5.141-78.4,17.121-114.306,35.662C208.985,200.79,263.808,101.634,358.376,43.939 M352.261,21.912
			c-2.216,1.238-4.431,2.489-6.632,3.756c-0.404,0.23-9.583,5.961-9.626,5.982c-0.082,0.042-0.21,0.139-0.195,0.15
			c-33.187,21.94-62.006,49.083-85.838,80.907c-26.855,35.851-46.277,76.092-57.739,119.6c-7.376,28.005-11.21,56.459-11.484,85.03
			c-37.403,22.972-69.602,52.288-95.786,87.251c-26.852,35.854-46.275,76.093-57.739,119.599
			c-8.827,33.502-10.874,90.606-10.817,95.71c0,0.274,0.006,0.549,0.008,0.821c0.004,0.075,0.004,0.156,0.004,0.237
			c0.037,0.021,0.071,0.043,0.106,0.065c3.837,2.233,7.777,4.282,11.643,6.468c1.065,0.604,2.195,1.15,3.342,1.679
			c2.699,1.425,5.418,2.806,8.148,4.154c0.031,0.026,0.097,0.053,0.093,0.05c20.796,10.27,42.638,18.449,65.381,24.443
			c43.508,11.457,88.093,14.377,132.523,8.671c43.891-5.634,85.782-19.495,124.621-41.209c24.15,13.057,49.811,23.2,76.729,30.291
			c43.504,11.457,88.092,14.378,132.52,8.67c40.033-5.136,78.4-17.125,114.308-35.672c-0.003,0.104,11.995-6.625,18.002-10.079
			c1.521-0.877,3.043-1.752,4.565-2.632c0.012-0.005,0.021-0.011,0.032-0.018c0.102-0.06,0.206-0.119,0.312-0.176v-0.013
			c0.192-0.114,0.381-0.231,0.574-0.351c0.078-6-0.263-12.053-0.634-17.949c-0.168-2.659-0.56-7.869-0.687-7.787
			c-0.468-7.134-1.148-14.274-2.065-21.403c-5.905-46.005-20.845-89.816-44.397-130.218
			c-23.553-40.399-54.322-74.981-91.447-102.785c-9.773-7.32-19.876-14.081-30.279-20.291c-0.273-12.108-1.186-24.229-2.739-36.343
			c-5.909-46.006-20.847-89.818-44.4-130.214c-23.55-40.4-54.318-74.984-91.445-102.787c-4.332-3.243-8.731-6.379-13.189-9.407
			c-0.479-0.233-0.952-0.492-1.398-0.806c-4.573-3.236-9.368-6.107-14.154-9.008c-0.82-0.494-1.637-0.993-2.453-1.493
			c-0.706-0.432-1.418-0.854-2.128-1.265c-0.098-0.059-0.196-0.114-0.289-0.17c-1.764-1.021-3.529-2.009-5.264-3.044
			c-0.263-0.156-0.524-0.312-0.783-0.468c-0.89-0.54-1.768-1.095-2.626-1.678C356.71,19.426,354.485,20.666,352.261,21.912"/>
	</defs>
	<clipPath id="SVGID_4_">
		<use xlink:href="#SVGID_3_"  overflow="visible"/>
	</clipPath>
	
		<linearGradient id="SVGID_5_" gradientUnits="userSpaceOnUse" x1="0" y1="685.7632" x2="1" y2="685.7632" gradientTransform="matrix(341.3727 -375.7825 -375.7825 -341.3727 257885.2969 234639.3906)">
		<stop  offset="0" style="stop-color:#FFFFFF"/>
		<stop  offset="0.1823" style="stop-color:#FFFFFF"/>
		<stop  offset="0.2808" style="stop-color:#FFFFFF"/>
		<stop  offset="0.4138" style="stop-color:#FFFFFF"/>
		<stop  offset="0.468" style="stop-color:#FFFFFF"/>
		<stop  offset="0.5566" style="stop-color:#FFFFFF"/>
		<stop  offset="0.6897" style="stop-color:#FFFFFF"/>
		<stop  offset="0.8177" style="stop-color:#FFFEFF"/>
		<stop  offset="0.9261" style="stop-color:#FFFFFF"/>
		<stop  offset="1" style="stop-color:#FFFFFF"/>
	</linearGradient>
	<polygon clip-path="url(#SVGID_4_)" fill="url(#SVGID_5_)" points="-309.155,376.495 329.694,-326.749 1034.896,313.879 
		396.047,1017.123 	"/>
</g>
<g>
	<defs>
		<rect id="SVGID_6_" width="723.531" height="685.57"/>
	</defs>
	<clipPath id="SVGID_7_">
		<use xlink:href="#SVGID_6_"  overflow="visible"/>
	</clipPath>
	<path clip-path="url(#SVGID_7_)" fill="none" stroke="#FFFFFF" stroke-width="5.118" stroke-miterlimit="10" d="M708.681,597.349
		c-0.167-2.659-0.56-7.869-0.687-7.786c-0.468-7.135-1.148-14.276-2.064-21.405c-5.907-46.003-20.844-89.815-44.399-130.216
		c-23.553-40.4-54.321-74.982-91.446-102.787c-9.772-7.319-19.875-14.08-30.279-20.29c-0.273-12.108-1.186-24.23-2.739-36.344
		c-5.91-46.005-20.846-89.817-44.4-130.213c-23.55-40.4-54.318-74.984-91.445-102.787c-4.331-3.243-8.731-6.379-13.189-9.407
		c-0.479-0.233-0.952-0.493-1.398-0.806c-4.573-3.236-9.368-6.108-14.154-9.008c-0.82-0.494-1.636-0.994-2.453-1.493
		c-0.707-0.432-1.419-0.854-2.129-1.266c-0.096-0.058-0.195-0.113-0.289-0.17c-1.763-1.021-3.528-2.008-5.262-3.043
		c-0.264-0.156-0.525-0.312-0.784-0.468c-0.89-0.54-1.767-1.095-2.626-1.678c-2.224,1.244-4.45,2.484-6.674,3.729
		c-2.216,1.239-4.43,2.49-6.632,3.758c-0.404,0.229-9.583,5.96-9.626,5.981c-0.082,0.042-0.209,0.139-0.195,0.15
		c-33.186,21.94-62.006,49.084-85.838,80.906c-26.855,35.852-46.277,76.093-57.738,119.6c-7.376,28.006-11.211,56.46-11.484,85.031
		c-37.404,22.972-69.603,52.288-95.787,87.252c-26.851,35.852-46.275,76.092-57.738,119.599
		c-8.827,33.501-10.874,90.605-10.817,95.709c0,0.275,0.006,0.549,0.008,0.821c0.004,0.075,0.004,0.156,0.004,0.237
		c0.037,0.021,0.071,0.042,0.106,0.065c3.836,2.234,7.776,4.282,11.643,6.468c1.065,0.604,2.195,1.15,3.341,1.679
		c2.7,1.425,5.418,2.806,8.149,4.154c0.031,0.026,0.096,0.053,0.093,0.049c20.795,10.271,42.637,18.45,65.38,24.444
		c43.508,11.457,88.093,14.377,132.524,8.672c43.89-5.634,85.781-19.497,124.62-41.209c24.15,13.055,49.812,23.2,76.729,30.29
		c43.503,11.457,88.091,14.378,132.52,8.671c40.033-5.137,78.399-17.126,114.307-35.673c-0.003,0.105,11.995-6.625,18.002-10.079
		c1.521-0.877,3.044-1.751,4.565-2.632c0.012-0.005,0.021-0.011,0.032-0.017c0.102-0.061,0.206-0.12,0.312-0.177v-0.013
		c0.192-0.115,0.381-0.232,0.574-0.35C709.394,609.299,709.052,603.246,708.681,597.349z M358.376,43.939
		c46.132,27.19,86.144,66.166,114.982,115.625c26.27,45.06,40.406,93.907,43.423,142.728
		c-21.067-10.478-43.222-18.795-66.297-24.875c-43.505-11.459-88.094-14.376-132.524-8.672
		c-40.03,5.141-78.399,17.12-114.306,35.661C208.985,200.789,263.808,101.634,358.376,43.939z M39.083,607.705
		c1.317-103.466,51.624-203.376,142.398-264.268c0.471,7.132,1.163,14.262,2.074,21.391c5.909,46.005,20.845,89.815,44.402,130.214
		c23.551,40.402,54.321,74.987,91.443,102.788c6.632,4.964,13.411,9.674,20.335,14.127
		C242.307,661.345,129.978,656.738,39.083,607.705z M362.23,599.42c-46.132-27.188-86.131-66.178-114.966-115.634
		c-28.262-48.474-42.481-101.323-43.921-153.818c100.508-56.565,219.049-53.585,314.006-2.011
		C515.459,435.517,460.145,539.69,362.23,599.42z M384.814,611.551c33.188-21.939,62.005-49.083,85.839-80.91
		c26.852-35.854,46.278-76.09,57.738-119.596c6.078-23.074,9.752-46.453,11.011-69.945c41.004,26.674,76.546,63.039,102.818,108.097
		c28.262,48.478,42.47,101.332,43.906,153.827C590.049,657.094,477.496,656.743,384.814,611.551z"/>
</g>
<g>
	<defs>
		<path id="SVGID_8_" d="M352.428,21.306c-2.214,1.242-4.429,2.491-6.63,3.762c-0.403,0.227-0.806,0.472-1.203,0.72
			c-0.023,0.018-0.046,0.032-0.071,0.045c-2.733,1.713-5.368,3.731-8.223,5.145c-0.042,0.022-0.085,0.049-0.129,0.069
			c-0.081,0.039-0.169,0.075-0.251,0.118c0.019,0.009,0.037,0.022,0.056,0.027c-33.187,21.943-62.008,49.086-85.841,80.91
			c-26.851,35.855-46.273,76.096-57.738,119.602c-7.377,28.003-11.207,56.459-11.482,85.032l10.354,10.548
			C184.63,134.735,358.723,28.952,358.723,28.952l0.377-11.375C356.881,18.825,354.653,20.061,352.428,21.306"/>
	</defs>
	<clipPath id="SVGID_9_">
		<use xlink:href="#SVGID_8_"  overflow="visible"/>
	</clipPath>
	
		<linearGradient id="SVGID_10_" gradientUnits="userSpaceOnUse" x1="0" y1="685.5698" x2="1" y2="685.5698" gradientTransform="matrix(178.1839 0 0 -178.1839 180.875 122329.9609)">
		<stop  offset="0" style="stop-color:#FFFFFF"/>
		<stop  offset="0.1773" style="stop-color:#FFFFFF"/>
		<stop  offset="0.2611" style="stop-color:#FFFFFF"/>
		<stop  offset="0.4187" style="stop-color:#FFFFFF"/>
		<stop  offset="0.7143" style="stop-color:#FFFFFF"/>
		<stop  offset="0.7537" style="stop-color:#FFFFFF"/>
		<stop  offset="0.798" style="stop-color:#FFFFFF"/>
		<stop  offset="0.8473" style="stop-color:#FFFEFF"/>
		<stop  offset="1" style="stop-color:#FFFEFF"/>
	</linearGradient>
	<rect x="180.916" y="17.577" clip-path="url(#SVGID_9_)" fill="url(#SVGID_10_)" width="178.184" height="309.707"/>
</g>
<g>
	<defs>
		<path id="SVGID_11_" d="M380.313,619.08l-21.212-3.877c-192.316,100.2-330.706-4.527-330.706-4.527l-11.805,9.676
			c0.035,0.02,0.069,0.042,0.103,0.063c3.839,2.234,7.778,4.285,11.643,6.474c1.066,0.602,2.197,1.145,3.342,1.679
			c2.699,1.423,5.418,2.804,8.149,4.155c0.031,0.019,0.066,0.04,0.093,0.059v-0.011c20.796,10.267,42.637,18.449,65.38,24.438
			c43.508,11.461,88.094,14.378,132.523,8.677c43.889-5.637,85.778-19.498,124.622-41.212c24.147,13.058,49.811,23.2,76.725,30.29
			c43.506,11.46,88.094,14.377,132.525,8.676c40.031-5.143,78.398-17.128,114.308-35.674c-0.006,0.102-0.008,0.2-0.015,0.307
			c5.999-3.481,12.004-6.933,18.011-10.39c1.526-0.877,3.049-1.751,4.568-2.628c0.012-0.006,0.019-0.013,0.031-0.018
			c0.104-0.063,0.21-0.12,0.313-0.183v-0.01c0.187-0.113,0.383-0.23,0.574-0.347l-12.303-8.333
			C515.278,706.684,380.313,619.08,380.313,619.08"/>
	</defs>
	<clipPath id="SVGID_12_">
		<use xlink:href="#SVGID_11_"  overflow="visible"/>
	</clipPath>
	
		<linearGradient id="SVGID_13_" gradientUnits="userSpaceOnUse" x1="0" y1="685.5366" x2="1" y2="685.5366" gradientTransform="matrix(692.8951 0 0 -692.8951 16.5 475665.5313)">
		<stop  offset="0" style="stop-color:#FFFFFF"/>
		<stop  offset="0.1773" style="stop-color:#FFFFFF"/>
		<stop  offset="0.2611" style="stop-color:#FFFFFF"/>
		<stop  offset="0.4187" style="stop-color:#FFFFFF"/>
		<stop  offset="0.7143" style="stop-color:#FFFFFF"/>
		<stop  offset="0.7537" style="stop-color:#FFFFFF"/>
		<stop  offset="0.798" style="stop-color:#FFFFFF"/>
		<stop  offset="0.8473" style="stop-color:#FFFEFF"/>
		<stop  offset="1" style="stop-color:#FFFEFF"/>
	</linearGradient>
	<rect x="16.589" y="606.364" clip-path="url(#SVGID_12_)" fill="url(#SVGID_13_)" width="692.896" height="109.039"/>
</g>
<g>
	<defs>
		<path id="SVGID_14_" d="M28.394,610.675l10.855-3.575c1.319-103.465,51.627-203.376,142.401-264.267
			c0.473,7.133,1.16,14.261,2.078,21.394c5.906,46.004,20.845,89.813,44.396,130.214c23.553,40.397,54.319,74.981,91.446,102.788
			c6.631,4.962,13.41,9.672,20.331,14.125l19.199,3.849l0.373-7.441c-171.142-89.122-168.404-269.613-168.404-269.613l0.201-10.864
			C191.27,327.284,25.678,428.044,28.394,610.675"/>
	</defs>
	<clipPath id="SVGID_15_">
		<use xlink:href="#SVGID_14_"  overflow="visible"/>
	</clipPath>
	
		<linearGradient id="SVGID_16_" gradientUnits="userSpaceOnUse" x1="0" y1="685.5698" x2="1" y2="685.5698" gradientTransform="matrix(331.1115 0 0 -331.1115 28.25 227471.3281)">
		<stop  offset="0" style="stop-color:#FFFFFF"/>
		<stop  offset="0.1773" style="stop-color:#FFFFFF"/>
		<stop  offset="0.2611" style="stop-color:#FFFFFF"/>
		<stop  offset="0.4187" style="stop-color:#FFFFFF"/>
		<stop  offset="0.7143" style="stop-color:#FFFFFF"/>
		<stop  offset="0.7537" style="stop-color:#FFFFFF"/>
		<stop  offset="0.798" style="stop-color:#FFFFFF"/>
		<stop  offset="0.8473" style="stop-color:#FFFEFF"/>
		<stop  offset="1" style="stop-color:#FFFEFF"/>
	</linearGradient>
	<rect x="25.678" y="327.284" clip-path="url(#SVGID_15_)" fill="url(#SVGID_16_)" width="333.795" height="287.919"/>
</g>
<g>
	<defs>
		<path id="SVGID_17_" d="M358.723,43.441c46.056,27.186,86.003,66.121,114.806,115.517c26.269,45.063,40.403,93.909,43.421,142.732
			c-21.069-10.477-43.223-18.8-66.297-24.874c-43.507-11.461-88.091-14.38-132.521-8.675c-39.73,5.1-77.817,16.943-113.487,35.245
			l-0.644,1.083l-12.732,22.815c0,0,145.109-109.953,326.636-10.364l-0.389,10.436c-1.89,107.559-59.93,212.627-157.844,272.354
			l-0.201,8.051c0,0,157.541-68.611,170.216-270.819l9.884,3.549c40.999,26.681,76.545,63.046,102.815,108.105
			c28.264,48.476,42.472,101.332,43.907,153.821l10.886,3.946c-7.415-200.798-168.41-285.824-168.41-285.824
			C522.431,105.517,358.723,28.952,358.723,28.952V43.441z"/>
	</defs>
	<clipPath id="SVGID_18_">
		<use xlink:href="#SVGID_17_"  overflow="visible"/>
	</clipPath>
	
		<linearGradient id="SVGID_19_" gradientUnits="userSpaceOnUse" x1="0" y1="685.5698" x2="1" y2="685.5698" gradientTransform="matrix(505.9136 0 0 -505.9136 191.25 347157.6563)">
		<stop  offset="0" style="stop-color:#FFFFFF"/>
		<stop  offset="0.1773" style="stop-color:#FFFFFF"/>
		<stop  offset="0.2611" style="stop-color:#FFFFFF"/>
		<stop  offset="0.4187" style="stop-color:#FFFFFF"/>
		<stop  offset="0.7143" style="stop-color:#FFFFFF"/>
		<stop  offset="0.7537" style="stop-color:#FFFFFF"/>
		<stop  offset="0.798" style="stop-color:#FFFFFF"/>
		<stop  offset="0.8473" style="stop-color:#FFFEFF"/>
		<stop  offset="1" style="stop-color:#FFFEFF"/>
	</linearGradient>
	<rect x="191.27" y="28.952" clip-path="url(#SVGID_18_)" fill="url(#SVGID_19_)" width="505.912" height="578.81"/>
</g>
<g>
	<defs>
		<rect id="SVGID_20_" width="723.531" height="685.57"/>
	</defs>
	<clipPath id="SVGID_21_">
		<use xlink:href="#SVGID_20_"  overflow="visible"/>
	</clipPath>
	<path clip-path="url(#SVGID_21_)" fill="#FFFFFF" d="M504.9,281.79c-5.169-41.66-18.65-81.41-40.061-118.15
		c-25.58-43.87-61.858-81.17-104.91-107.87l-1.47-0.91l-1.45,0.93c-38.81,24.87-72.19,58.74-96.54,97.94
		c-24.29,39.13-39.9,84.05-45.13,129.93l-0.54,4.77l4.38-1.96c31.179-13.93,64.17-23.2,98.08-27.55
		c14.86-1.91,29.95-2.88,44.84-2.88c30.101,0,60.29,3.93,89.711,11.68c16.81,4.43,33.399,10.13,49.289,16.93l4.382,1.87
		L504.9,281.79z M453.21,262.43c-29.88-7.88-60.53-11.87-91.11-11.87c-15.119,0-30.45,0.99-45.539,2.93
		c-32.841,4.21-64.841,12.97-95.202,26.04C232.99,189.72,282.74,110.5,358.51,61.34c41.65,26.16,76.76,62.46,101.6,105.06
		c20.23,34.71,33.25,72.14,38.73,111.36C484.05,271.67,468.731,266.52,453.21,262.43"/>
	<path clip-path="url(#SVGID_21_)" fill="#FFFFFF" d="M676.311,595.411c-2.461-49.15-16.891-97.66-41.74-140.291
		c-21.271-36.471-49.021-67.549-82.49-92.379l-3.801-2.82l-0.52,4.699c-1.891,17.069-5.08,34.181-9.48,50.859
		c-11.549,43.842-31.129,84.401-58.199,120.54c-19.94,26.642-43.561,50.221-70.2,70.09l-3.84,2.87l4.43,1.83
		c37.521,15.42,78.66,23.58,118.96,23.58c50.48,0,100.771-12.599,145.45-36.439l1.521-0.819L676.311,595.411z M529.43,628.95
		c-38.02,0-76.79-7.391-112.449-21.391c25.489-19.569,48.159-42.519,67.459-68.279c27.49-36.699,47.371-77.891,59.101-122.42
		c4.05-15.39,7.1-31.16,9.069-46.921c31.19,23.91,57.17,53.471,77.261,87.921c24.12,41.38,38.25,88.4,40.92,136.101
		C627.279,616.859,578.439,628.95,529.43,628.95"/>
	<path clip-path="url(#SVGID_21_)" fill="#FFFFFF" d="M316.209,606.58c-1.379-1-2.75-2.01-4.11-3.03
		c-37.76-28.279-69.05-63.449-93.01-104.54c-23.95-41.079-39.139-85.64-45.15-132.439c-0.09-0.63-0.16-1.26-0.239-1.89l-0.58-4.761
		l-3.81,2.92c-36.061,27.67-66.15,63.761-87,104.381c-20.891,40.699-32.781,86.46-34.381,132.35l-0.059,1.74l1.559,0.8
		c44.21,22.58,93.78,34.52,143.34,34.52c41.801,0,84.301-8.75,122.91-25.31l4.441-1.9L316.209,606.58z M192.77,631.14
		c-48.119,0-96.24-11.45-139.289-33.131c3.64-89.849,45.56-172.55,115.399-227.88c6.351,46.49,21.64,90.761,45.47,131.641
		c24.33,41.729,56.11,77.45,94.471,106.17c0.09,0.069,0.17,0.13,0.26,0.2C272.35,623.2,232.241,631.14,192.77,631.14"/>
	<path clip-path="url(#SVGID_21_)" fill="#FFFFFF" d="M722.859,598.04l-0.06-0.93c-0.14-2.14-0.271-4.16-0.229-5.92l0.01-0.18
		l-2.2-20.341c-0.12-0.97-0.24-1.93-0.36-2.89c-6.15-48.15-21.699-94-46.22-136.27c-24.521-42.271-56.55-78.46-95.2-107.561
		c-7.979-6.01-16.34-11.76-24.85-17.13c-0.45-10.06-1.32-20.2-2.59-30.18c-6.16-48.16-21.709-94-46.221-136.26
		c-24.52-42.27-56.55-78.46-95.209-107.56c-4.44-3.34-9.051-6.65-13.721-9.84l-0.68-0.46l-0.879-0.47
		c-4.581-3.23-9.211-6.05-13.701-8.77l-0.939-0.58c-0.609-0.37-1.211-0.74-1.811-1.11l-0.57-0.35c-0.8-0.49-1.609-0.97-2.39-1.42
		l-2.261-1.31c-1.1-0.64-2.14-1.23-3.229-1.89l-0.63-0.37c-0.75-0.47-1.41-0.89-2.01-1.29L359.651,0l-14.34,8.05
		c-2.511,1.41-4.721,2.68-6.74,3.85c-0.431,0.24-0.821,0.48-1.191,0.7l-1.11,0.7c-0.86,0.56-1.69,1.11-2.51,1.67
		c-1.47,0.99-2.859,1.93-3.96,2.48l-0.44,0.21l-19.61,13.81c-26.96,20.42-50.91,44.56-71.17,71.75
		c-27.95,37.52-48.17,79.62-60.099,125.15c-6.971,26.6-10.941,53.88-11.801,81.11c-36.119,23.38-67.439,52.689-93.1,87.13
		c-27.96,37.53-48.179,79.63-60.11,125.15c-4.59,17.51-7.899,35.5-9.86,53.56l-1.68,20.95l0.01,0.189
		C1.96,596.79,0,630.089,0,630.089l9.59,5.131c2.3,1.34,4.59,2.59,6.891,3.859c1.619,0.891,3.159,1.73,4.679,2.59
		c1.53,0.881,3.03,1.591,4.03,2.061c2.43,1.29,4.961,2.59,7.82,4.01l17.1,7.96c16.58,7.2,33.881,13.2,51.39,17.84
		c30.18,7.98,61.12,12.03,91.981,12.03c15.269,0,30.739-1,45.979-2.96c43.07-5.56,84.42-18.81,122.92-39.39
		c23.12,11.92,47.67,21.35,72.99,28.06c30.17,7.98,61.12,12.03,91.97,12.03c15.28,0,30.75-0.99,45.98-2.96
		c34.97-4.511,68.99-14.16,101.18-28.681l18.22-8.569l0.22-0.11c5.44-3.17,10.99-6.38,16.351-9.479l5.899-3.421l7.75-4.22v-0.51
		l0.471-0.28l0.109-7.91C723.6,610.6,723.24,604.12,722.859,598.04 M717.93,621.93l-0.51,0.31v0.32l-4.92,2.68l-5.96,3.45
		c-5.339,3.08-10.86,6.27-16.271,9.43l-18.08,8.5c-31.64,14.28-65.149,23.78-99.569,28.22c-15,1.931-30.24,2.921-45.28,2.921
		c-30.38,0-60.85-3.99-90.561-11.86c-25.399-6.72-50.01-16.24-73.149-28.28l-1.3-0.67l-1.28,0.69
		c-38.27,20.649-79.41,33.92-122.3,39.46c-15,1.93-30.23,2.92-45.269,2.92c-30.381,0-60.861-3.99-90.571-11.86
		c-17.25-4.57-34.28-10.479-50.55-17.53l-16.959-7.899c-2.781-1.38-5.291-2.67-7.691-3.94l-0.12-0.069
		c-0.93-0.431-2.31-1.091-3.71-1.891c-1.55-0.87-3.1-1.729-4.83-2.68c-2.21-1.21-4.489-2.46-6.75-3.78l-6.78-2.87
		c0,0,2.11-26.22,2.07-27.81c0,0-0.04-1.49-0.06-1.9l-0.02-0.56c0-0.43,1.6-21.391,1.6-21.391c1.92-17.71,5.19-35.43,9.701-52.67
		C30.561,478.35,50.47,436.89,78,399.95c25.55-34.3,56.811-63.43,92.89-86.58l1.24-0.79l0.04-1.47
		c0.74-27.3,4.66-54.66,11.651-81.32c11.75-44.84,31.66-86.3,59.189-123.23c19.95-26.78,43.52-50.55,69.99-70.6l19.14-13.47
		l0.12-0.07c1.42-0.7,2.96-1.74,4.61-2.86c0.79-0.53,1.611-1.09,2.48-1.64l0.92-0.58c0.31-0.19,0.66-0.4,1.041-0.62
		c2.019-1.17,4.209-2.42,6.699-3.82l11.36-6.38l4.441,3.04c0.67,0.45,1.399,0.92,2.26,1.44l0.72,0.44c1.04,0.62,2.11,1.24,3.31,1.93
		l2.15,1.24c0.76,0.45,1.529,0.91,2.29,1.37l0.58,0.36c0.61,0.37,1.22,0.75,1.831,1.12l0.938,0.57c4.46,2.72,9.08,5.52,13.562,8.7
		l0.929,0.5l0.521,0.35c4.6,3.14,9.149,6.4,13.52,9.69c38.061,28.65,69.6,64.29,93.74,105.91c24.14,41.61,39.449,86.75,45.51,134.17
		c1.32,10.3,2.2,20.79,2.609,31.17l0.061,1.47l1.25,0.77c8.811,5.5,17.45,11.44,25.689,17.64
		c38.061,28.65,69.601,64.29,93.74,105.91c24.15,41.62,39.461,86.76,45.51,134.17c0.121,0.95,0.24,1.899,0.351,2.83l2.16,19.939
		c-0.03,1.95,0.1,4.021,0.239,6.23l0.061,0.91c0.37,5.97,0.73,12.33,0.65,18.71L717.93,621.93z"/>
	<path clip-path="url(#SVGID_21_)" fill="#FFFFFF" d="M506.95,330.8c-44.761-23.02-94.99-35.19-145.261-35.19
		c-51.34,0-102.489,12.82-147.93,37.07l-1.55,0.82l0.09,1.75c2.5,49.97,17.191,99.31,42.46,142.67
		c25.84,44.31,62.46,81.97,105.901,108.91l1.479,0.92l1.47-0.94c42.74-27.371,78.551-64.96,103.561-108.72
		c25-43.75,39.27-93.79,41.28-144.72l0.069-1.76L506.95,330.8z M362.1,581.21c-42.029-26.4-77.47-63.051-102.56-106.08
		c-24.54-42.09-38.919-89.91-41.629-138.4c44.25-23.291,93.929-35.59,143.779-35.59c48.811,0,97.58,11.67,141.16,33.78
		C498.34,435.07,445.859,526.899,362.1,581.21"/>
</g>
</svg>
