<?xml version="1.0" encoding="utf-8"?>
<!-- Generator: Adobe Illustrator 16.0.0, SVG Export Plug-In . SVG Version: 6.00 Build 0)  -->
<!DOCTYPE svg PUBLIC "-//W3C//DTD SVG 1.1//EN" "http://www.w3.org/Graphics/SVG/1.1/DTD/svg11.dtd">
<svg version="1.1" id="Layer_1" xmlns="http://www.w3.org/2000/svg" xmlns:xlink="http://www.w3.org/1999/xlink" x="0px" y="0px"
	 width="60px" height="64px" viewBox="0 0 60 64" enable-background="new 0 0 60 64" xml:space="preserve">
<g>
	<defs>
		<rect id="SVGID_1_" width="60" height="64"/>
	</defs>
	<clipPath id="SVGID_2_">
		<use xlink:href="#SVGID_1_"  overflow="visible"/>
	</clipPath>
	<path clip-path="url(#SVGID_2_)" fill="none" stroke="#684632" stroke-width="2" stroke-miterlimit="10" d="M34,27.5L34,27.5
		c0,1.381,1.119,2.5,2.5,2.5h4c1.381,0,2.5-1.119,2.5-2.5S41.881,25,40.5,25h-4C35.119,25,34,26.119,34,27.5z"/>
	<path clip-path="url(#SVGID_2_)" fill="none" stroke="#684632" stroke-width="2" stroke-miterlimit="10" d="M34,22.5L34,22.5
		c0,1.381,1.119,2.5,2.5,2.5h6c1.381,0,2.5-1.119,2.5-2.5S43.881,20,42.5,20h-6C35.119,20,34,21.119,34,22.5z"/>
	<path clip-path="url(#SVGID_2_)" fill="none" stroke="#684632" stroke-width="2" stroke-miterlimit="10" d="M34,17.5L34,17.5
		c0,1.381,1.119,2.5,2.5,2.5h7c1.381,0,2.5-1.119,2.5-2.5S44.881,15,43.5,15h-7C35.119,15,34,16.119,34,17.5z"/>
	<path clip-path="url(#SVGID_2_)" fill="none" stroke="#684632" stroke-width="2" stroke-miterlimit="10" d="M34,11v1.5
		c-0.264,0.658,1.063,2.347,2.5,2.5h6c1.381,0,2.5-1.119,2.5-2.5c0-1.38-1.119-2.5-2.5-2.5h-4.167"/>
	<path clip-path="url(#SVGID_2_)" fill="none" stroke="#684632" stroke-width="2" stroke-miterlimit="10" d="M22.25,21H26l4-4v-6
		h6.5c1.381,0,2.5-1.119,2.5-2.5V6H27l-6,4.969H4"/>
	<polyline clip-path="url(#SVGID_2_)" fill="none" stroke="#684632" stroke-width="2" stroke-miterlimit="10" points="4,27 21,27 
		24.138,28.883 	"/>
	
		<line clip-path="url(#SVGID_2_)" fill="none" stroke="#684632" stroke-width="2" stroke-miterlimit="10" x1="2" y1="27.047" x2="0" y2="27.047"/>
	
		<line clip-path="url(#SVGID_2_)" fill="none" stroke="#684632" stroke-width="2" stroke-miterlimit="10" x1="2" y1="11" x2="0" y2="11"/>
	<polyline clip-path="url(#SVGID_2_)" fill="none" stroke="#684632" stroke-width="2" stroke-miterlimit="10" points="26,6 24,3 
		24,1 40,1 40,3 	"/>
	<path clip-path="url(#SVGID_2_)" fill="none" stroke="#684632" stroke-width="2" stroke-miterlimit="10" d="M27.488,19.264
		c0,0.326,0.029,0.324,0.007,0.647c-0.223,3.317-1.582,6.468-3.865,8.912c-4.108,4.108-6.761,8.357-7.644,13.619
		c-0.062,0.37-0.174,0.738-0.385,1.049C15.225,44.047,15,44.712,15,45.435c0,0.809,0.073,1.599,0.179,2.379
		c-0.013,0.056-0.021,0.113-0.037,0.17C15.05,48.288,15,48.611,15,48.947c0,0.922,0.358,1.754,0.941,2.377
		c0.065,0.068,0.115,0.147,0.173,0.221c0.182,0.489,0.384,0.966,0.607,1.434c0.015,0.119,0.036,0.237,0.036,0.358v0.002
		c0,0.849,0.503,1.627,1.071,2.235c0.341,0.364,0.722,0.684,1.132,0.966C22.181,60.481,27.078,63,32.566,63
		c5.494,0,10.396-2.525,13.617-6.477c0.405-0.274,0.784-0.59,1.12-0.949c0.566-0.608,1.07-1.387,1.07-2.235v-0.002
		c0-0.122,0.021-0.239,0.036-0.357c0.223-0.468,0.425-0.945,0.607-1.436c0.057-0.072,0.107-0.15,0.172-0.22
		c0.583-0.622,0.941-1.455,0.941-2.377c0-0.336-0.051-0.659-0.142-0.964c-0.017-0.057-0.024-0.114-0.038-0.17
		c0.106-0.78,0.18-1.57,0.18-2.379c0-0.723-0.225-1.388-0.601-1.943c-0.211-0.311-0.323-0.679-0.385-1.049
		c-0.884-5.262-3.537-9.511-7.645-13.619"/>
	
		<line clip-path="url(#SVGID_2_)" fill="none" stroke="#684632" stroke-width="2" stroke-miterlimit="10" x1="28" y1="46" x2="30" y2="46"/>
	
		<line clip-path="url(#SVGID_2_)" fill="none" stroke="#684632" stroke-width="2" stroke-miterlimit="10" x1="32" y1="46" x2="34" y2="46"/>
	
		<line clip-path="url(#SVGID_2_)" fill="none" stroke="#684632" stroke-width="2" stroke-miterlimit="10" x1="36" y1="46" x2="38" y2="46"/>
	<circle clip-path="url(#SVGID_2_)" fill="none" stroke="#684632" stroke-width="2" stroke-miterlimit="10" cx="9" cy="45" r="2"/>
	
		<line clip-path="url(#SVGID_2_)" fill="none" stroke="#684632" stroke-width="2" stroke-miterlimit="10" x1="9.063" y1="40" x2="9.063" y2="36.375"/>
	
		<line clip-path="url(#SVGID_2_)" fill="none" stroke="#684632" stroke-width="2" stroke-miterlimit="10" x1="9.063" y1="34.375" x2="9.063" y2="32.375"/>
	<circle clip-path="url(#SVGID_2_)" fill="none" stroke="#684632" stroke-width="2" stroke-miterlimit="10" cx="51" cy="16" r="2"/>
	
		<line clip-path="url(#SVGID_2_)" fill="none" stroke="#684632" stroke-width="2" stroke-miterlimit="10" x1="51.063" y1="11" x2="51.063" y2="7.375"/>
	
		<line clip-path="url(#SVGID_2_)" fill="none" stroke="#684632" stroke-width="2" stroke-miterlimit="10" x1="51.063" y1="5.375" x2="51.063" y2="3.375"/>
	
		<line clip-path="url(#SVGID_2_)" fill="none" stroke="#684632" stroke-width="2" stroke-miterlimit="10" x1="56" y1="28" x2="56" y2="30"/>
	
		<line clip-path="url(#SVGID_2_)" fill="none" stroke="#684632" stroke-width="2" stroke-miterlimit="10" x1="52" y1="32" x2="54" y2="32"/>
	
		<line clip-path="url(#SVGID_2_)" fill="none" stroke="#684632" stroke-width="2" stroke-miterlimit="10" x1="58" y1="32" x2="60" y2="32"/>
	
		<line clip-path="url(#SVGID_2_)" fill="none" stroke="#684632" stroke-width="2" stroke-miterlimit="10" x1="56" y1="34" x2="56" y2="36"/>
</g>
</svg>
