<?xml version="1.0" encoding="utf-8"?>
<!-- Generator: Adobe Illustrator 16.0.0, SVG Export Plug-In . SVG Version: 6.00 Build 0)  -->
<!DOCTYPE svg PUBLIC "-//W3C//DTD SVG 1.1//EN" "http://www.w3.org/Graphics/SVG/1.1/DTD/svg11.dtd">
<svg version="1.1" id="Layer_1" xmlns="http://www.w3.org/2000/svg" xmlns:xlink="http://www.w3.org/1999/xlink" x="0px" y="0px"
	 width="64px" height="62px" viewBox="0 0 64 62" enable-background="new 0 0 64 62" xml:space="preserve">
<g>
	<defs>
		<rect id="SVGID_1_" width="64" height="62"/>
	</defs>
	<clipPath id="SVGID_2_">
		<use xlink:href="#SVGID_1_"  overflow="visible"/>
	</clipPath>
	<path clip-path="url(#SVGID_2_)" fill="none" stroke="#684632" stroke-width="2" stroke-miterlimit="10" d="M49,47.5V61H3
		c-1.104,0-2-0.896-2-2V25"/>
	<path clip-path="url(#SVGID_2_)" fill="none" stroke="#684632" stroke-width="2" stroke-miterlimit="10" d="M6,23H3
		c-1.104,0-2,0.896-2,2s0.896,2,2,2h46v14.333"/>
	<circle clip-path="url(#SVGID_2_)" fill="none" stroke="#684632" stroke-width="2" stroke-miterlimit="10" cx="38" cy="22" r="5"/>
	
		<line clip-path="url(#SVGID_2_)" fill="none" stroke="#684632" stroke-width="2" stroke-miterlimit="10" x1="50.097" y1="22" x2="48.483" y2="22"/>
	
		<line clip-path="url(#SVGID_2_)" fill="none" stroke="#684632" stroke-width="2" stroke-miterlimit="10" x1="53.323" y1="22" x2="51.71" y2="22"/>
	
		<line clip-path="url(#SVGID_2_)" fill="none" stroke="#684632" stroke-width="2" stroke-miterlimit="10" x1="24.291" y1="22" x2="22.678" y2="22"/>
	
		<line clip-path="url(#SVGID_2_)" fill="none" stroke="#684632" stroke-width="2" stroke-miterlimit="10" x1="27.516" y1="22" x2="25.903" y2="22"/>
	<polyline clip-path="url(#SVGID_2_)" fill="none" stroke="#684632" stroke-width="2" stroke-miterlimit="10" points="63,17 59,17 
		57,15 57,11 	"/>
	<polyline clip-path="url(#SVGID_2_)" fill="none" stroke="#684632" stroke-width="2" stroke-miterlimit="10" points="52.084,34 
		63.001,34 63.001,11 13,11 13,26.917 	"/>
	<circle clip-path="url(#SVGID_2_)" fill="none" stroke="#684632" stroke-width="2" stroke-miterlimit="10" cx="38" cy="22" r="5"/>
	
		<line clip-path="url(#SVGID_2_)" fill="none" stroke="#684632" stroke-width="2" stroke-miterlimit="10" x1="50.097" y1="22" x2="48.483" y2="22"/>
	
		<line clip-path="url(#SVGID_2_)" fill="none" stroke="#684632" stroke-width="2" stroke-miterlimit="10" x1="53.323" y1="22" x2="51.71" y2="22"/>
	
		<line clip-path="url(#SVGID_2_)" fill="none" stroke="#684632" stroke-width="2" stroke-miterlimit="10" x1="24.291" y1="22" x2="22.678" y2="22"/>
	
		<line clip-path="url(#SVGID_2_)" fill="none" stroke="#684632" stroke-width="2" stroke-miterlimit="10" x1="27.516" y1="22" x2="25.903" y2="22"/>
	<polyline clip-path="url(#SVGID_2_)" fill="none" stroke="#684632" stroke-width="2" stroke-miterlimit="10" points="13,17 17,17 
		19,15 19,11 	"/>
	<path clip-path="url(#SVGID_2_)" fill="none" stroke="#684632" stroke-width="2" stroke-miterlimit="10" d="M46,11V2
		c0-0.552-0.448-1-1-1H10C9.448,1,9,1.448,9,2v22"/>
	
		<line clip-path="url(#SVGID_2_)" fill="none" stroke="#684632" stroke-width="2" stroke-miterlimit="10" x1="42" y1="4" x2="42" y2="6"/>
	
		<line clip-path="url(#SVGID_2_)" fill="none" stroke="#684632" stroke-width="2" stroke-miterlimit="10" x1="13" y1="4" x2="13" y2="6"/>
	
		<rect x="42" y="41" clip-path="url(#SVGID_2_)" fill="none" stroke="#684632" stroke-width="2" stroke-miterlimit="10" width="8" height="6"/>
	
		<line clip-path="url(#SVGID_2_)" fill="none" stroke="#684632" stroke-width="2" stroke-miterlimit="10" x1="48" y1="7" x2="61" y2="7"/>
	
		<line clip-path="url(#SVGID_2_)" fill="none" stroke="#684632" stroke-width="2" stroke-miterlimit="10" x1="20" y1="44" x2="22" y2="44"/>
	
		<line clip-path="url(#SVGID_2_)" fill="none" stroke="#684632" stroke-width="2" stroke-miterlimit="10" x1="24" y1="44" x2="26" y2="44"/>
	
		<line clip-path="url(#SVGID_2_)" fill="none" stroke="#684632" stroke-width="2" stroke-miterlimit="10" x1="28" y1="44" x2="30" y2="44"/>
	
		<line clip-path="url(#SVGID_2_)" fill="none" stroke="#684632" stroke-width="2" stroke-miterlimit="10" x1="44" y1="31" x2="46" y2="31"/>
	
		<line clip-path="url(#SVGID_2_)" fill="none" stroke="#684632" stroke-width="2" stroke-miterlimit="10" x1="44" y1="57" x2="46" y2="57"/>
</g>
</svg>
