<?xml version="1.0" encoding="utf-8"?>
<!-- Generator: Adobe Illustrator 16.0.0, SVG Export Plug-In . SVG Version: 6.00 Build 0)  -->
<!DOCTYPE svg PUBLIC "-//W3C//DTD SVG 1.1//EN" "http://www.w3.org/Graphics/SVG/1.1/DTD/svg11.dtd">
<svg version="1.1" id="Layer_1" xmlns="http://www.w3.org/2000/svg" xmlns:xlink="http://www.w3.org/1999/xlink" x="0px" y="0px"
	 width="62px" height="63.625px" viewBox="0 0 62 63.625" enable-background="new 0 0 62 63.625" xml:space="preserve">
<g>
	<defs>
		<rect id="SVGID_1_" width="62" height="63.625"/>
	</defs>
	<clipPath id="SVGID_2_">
		<use xlink:href="#SVGID_1_"  overflow="visible"/>
	</clipPath>
	<path clip-path="url(#SVGID_2_)" fill="none" stroke="#684632" stroke-width="2" stroke-miterlimit="10" d="M6,58.625h15
		l25.736-6.488l13.024-8.434c1.459-0.968,1.665-3.029,0.428-4.268c-0.934-0.933-2.396-1.077-3.494-0.346L47,45.625H29h6"/>
	<path clip-path="url(#SVGID_2_)" fill="none" stroke="#684632" stroke-width="2" stroke-miterlimit="10" d="M39.583,45.625
		l10.111-6.535c1.098-0.731,2.561-0.587,3.494,0.346c0.424,0.424,0.678,0.943,0.771,1.482"/>
	
		<circle clip-path="url(#SVGID_2_)" fill="none" stroke="#684632" stroke-width="2" stroke-miterlimit="10" cx="34" cy="31.625" r="4"/>
	
		<circle clip-path="url(#SVGID_2_)" fill="none" stroke="#684632" stroke-width="2" stroke-miterlimit="10" cx="46" cy="17.625" r="4"/>
	
		<line clip-path="url(#SVGID_2_)" fill="none" stroke="#684632" stroke-width="2" stroke-miterlimit="10" x1="48" y1="26.625" x2="48" y2="28.625"/>
	
		<line clip-path="url(#SVGID_2_)" fill="none" stroke="#684632" stroke-width="2" stroke-miterlimit="10" x1="44" y1="30.625" x2="46" y2="30.625"/>
	
		<line clip-path="url(#SVGID_2_)" fill="none" stroke="#684632" stroke-width="2" stroke-miterlimit="10" x1="50" y1="30.625" x2="52" y2="30.625"/>
	
		<line clip-path="url(#SVGID_2_)" fill="none" stroke="#684632" stroke-width="2" stroke-miterlimit="10" x1="48" y1="32.625" x2="48" y2="34.625"/>
	
		<line clip-path="url(#SVGID_2_)" fill="none" stroke="#684632" stroke-width="2" stroke-miterlimit="10" x1="20" y1="21.625" x2="20" y2="23.625"/>
	
		<line clip-path="url(#SVGID_2_)" fill="none" stroke="#684632" stroke-width="2" stroke-miterlimit="10" x1="16" y1="25.625" x2="18" y2="25.625"/>
	
		<line clip-path="url(#SVGID_2_)" fill="none" stroke="#684632" stroke-width="2" stroke-miterlimit="10" x1="22" y1="25.625" x2="24" y2="25.625"/>
	
		<line clip-path="url(#SVGID_2_)" fill="none" stroke="#684632" stroke-width="2" stroke-miterlimit="10" x1="20" y1="27.625" x2="20" y2="29.625"/>
	<polyline clip-path="url(#SVGID_2_)" fill="none" stroke="#684632" stroke-width="2" stroke-miterlimit="10" points="0,47.625 
		6,47.625 6,62.625 0,62.625 	"/>
	<path clip-path="url(#SVGID_2_)" fill="none" stroke="#684632" stroke-width="2" stroke-miterlimit="10" d="M8,47.625h2
		l9.342-6.644c1.072-0.878,2.415-1.356,3.8-1.356H40v2c0,2.209-1.791,4-4,4h-7"/>
	
		<line clip-path="url(#SVGID_2_)" fill="none" stroke="#684632" stroke-width="2" stroke-miterlimit="10" x1="1" y1="57.625" x2="1" y2="59.625"/>
	
		<circle clip-path="url(#SVGID_2_)" fill="none" stroke="#684632" stroke-width="2" stroke-miterlimit="10" cx="26" cy="13.625" r="2"/>
	
		<line clip-path="url(#SVGID_2_)" fill="none" stroke="#684632" stroke-width="2" stroke-miterlimit="10" x1="26" y1="7.625" x2="26" y2="4"/>
	
		<line clip-path="url(#SVGID_2_)" fill="none" stroke="#684632" stroke-width="2" stroke-miterlimit="10" x1="26" y1="2" x2="26" y2="0"/>
	
		<line clip-path="url(#SVGID_2_)" fill="none" stroke="#684632" stroke-width="2" stroke-miterlimit="10" x1="34" y1="24.25" x2="34" y2="20.625"/>
	
		<line clip-path="url(#SVGID_2_)" fill="none" stroke="#684632" stroke-width="2" stroke-miterlimit="10" x1="34" y1="18.625" x2="34" y2="16.625"/>
	
		<line clip-path="url(#SVGID_2_)" fill="none" stroke="#684632" stroke-width="2" stroke-miterlimit="10" x1="46" y1="11.25" x2="46" y2="7.625"/>
	
		<line clip-path="url(#SVGID_2_)" fill="none" stroke="#684632" stroke-width="2" stroke-miterlimit="10" x1="46" y1="5.625" x2="46" y2="3.625"/>
</g>
</svg>
