<?xml version="1.0" encoding="utf-8"?>
<!-- Generator: Adobe Illustrator 16.0.0, SVG Export Plug-In . SVG Version: 6.00 Build 0)  -->
<!DOCTYPE svg PUBLIC "-//W3C//DTD SVG 1.1//EN" "http://www.w3.org/Graphics/SVG/1.1/DTD/svg11.dtd">
<svg version="1.1" id="Layer_1" xmlns="http://www.w3.org/2000/svg" xmlns:xlink="http://www.w3.org/1999/xlink" x="0px" y="0px"
	 width="789.143px" height="230.76px" viewBox="0 0 789.143 230.76" enable-background="new 0 0 789.143 230.76"
	 xml:space="preserve">
<g>
	<defs>
		<rect id="SVGID_1_" width="789.143" height="230.76"/>
	</defs>
	<clipPath id="SVGID_2_">
		<use xlink:href="#SVGID_1_"  overflow="visible"/>
	</clipPath>
	<path clip-path="url(#SVGID_2_)" fill="#FFFFFF" d="M293.679,68.46h-13.329v19.676c0,2.371,0,8.67-5.57,8.67
		c-3.903,0-5.882-3.125-5.882-9.289V19.985c0-6.061,1.979-9.135,5.882-9.135c5.57,0,5.57,6.408,5.57,8.514v18.127h13.329V20.139
		C293.679,7.34,286.848,0,274.935,0c-11.849,0-19.211,8.015-19.211,20.915v65.672c0,12.899,7.362,20.915,19.211,20.915
		c11.913,0,18.745-7.341,18.745-20.141V68.46z"/>
	<path clip-path="url(#SVGID_2_)" fill="#FFFFFF" d="M340.762,20.915C340.762,8.016,333.52,0,321.861,0
		c-11.849,0-19.211,8.016-19.211,20.915v65.672c0,12.9,7.362,20.915,19.211,20.915c11.659,0,18.901-8.015,18.901-20.915V20.915z
		 M327.587,87.517c0,2.298,0,9.289-5.726,9.289c-4.006,0-6.036-3.125-6.036-9.289V19.985c0-6.061,2.03-9.135,6.036-9.135
		c3.799,0,5.726,3.074,5.726,9.135V87.517z"/>
	<polygon clip-path="url(#SVGID_2_)" fill="#FFFFFF" points="412.006,106.571 412.006,0.929 395.506,0.929 386.573,50.743 
		382.684,73.842 379.03,50.715 369.95,0.929 353.448,0.929 353.448,106.571 366.623,106.571 366.623,61.495 366.469,42.764 
		367.39,42.688 377.57,106.571 387.883,106.571 398.066,43.144 398.986,43.217 398.986,106.571 	"/>
	<polygon clip-path="url(#SVGID_2_)" fill="#FFFFFF" points="483.487,106.571 483.487,0.929 466.987,0.929 458.055,50.743 
		454.165,73.842 450.512,50.715 441.432,0.929 424.93,0.929 424.93,106.571 438.104,106.571 438.104,61.495 437.95,42.764 
		438.871,42.688 449.052,106.571 459.364,106.571 469.548,43.144 470.468,43.217 470.468,106.571 	"/>
	<path clip-path="url(#SVGID_2_)" fill="#FFFFFF" d="M535.596,0.928h-13.329v86.898c0,5.958-2.029,8.979-6.036,8.979
		c-4.005,0-6.036-3.021-6.036-8.979V0.928h-13.328v86.124c0,12.614,7.42,20.45,19.364,20.45c11.764,0,19.365-8.029,19.365-20.45
		V0.928z"/>
	<polygon clip-path="url(#SVGID_2_)" fill="#FFFFFF" points="592.744,106.571 592.744,0.929 579.569,0.929 579.569,47.5 
		580.034,69.357 579.118,69.467 574.498,48.777 563.747,0.929 549.057,0.929 549.057,106.571 562.077,106.571 562.077,59.171 
		561.668,41.885 577.892,106.571 	"/>
	<rect x="606.516" y="0.929" clip-path="url(#SVGID_2_)" fill="#FFFFFF" width="13.484" height="105.643"/>
	<polygon clip-path="url(#SVGID_2_)" fill="#FFFFFF" points="668.578,0.928 630.521,0.928 630.521,11.936 641.362,11.936 
		641.362,106.571 654.847,106.571 654.847,11.936 671.323,11.936 	"/>
	<polygon clip-path="url(#SVGID_2_)" fill="#FFFFFF" points="699.392,0.928 690.771,53.225 682.149,0.928 668.207,0.928 
		684.093,68.512 684.105,106.571 697.436,106.571 697.461,68.252 713.334,0.928 	"/>
	<path clip-path="url(#SVGID_2_)" fill="#FFFFFF" d="M280.689,203.335l0.036,0.422l2.287,26.063h13.567l-13.431-105.644h-16.913
		l-13.432,105.644h13.714l2.169-26.484H280.689z M273.265,147.648l2.697-0.003l3.885,44.992h-10.304L273.265,147.648z"/>
	<path clip-path="url(#SVGID_2_)" fill="#FFFFFF" d="M339.822,191.707h-13.329v19.676c0,2.372,0,8.67-5.57,8.67
		c-3.903,0-5.882-3.124-5.882-9.287v-67.533c0-6.061,1.979-9.134,5.882-9.134c5.57,0,5.57,6.407,5.57,8.514v18.126h13.329v-17.352
		c0-12.799-6.832-20.14-18.746-20.14c-11.848,0-19.21,8.016-19.21,20.915v65.672c0,12.9,7.362,20.915,19.21,20.915
		c11.914,0,18.746-7.34,18.746-20.141V191.707z"/>
	<polygon clip-path="url(#SVGID_2_)" fill="#FFFFFF" points="380.931,124.176 345.513,124.176 345.513,135.184 357.077,135.184 
		357.077,229.82 370.562,229.82 370.562,135.184 380.931,135.184 	"/>
	<rect x="391.073" y="124.176" clip-path="url(#SVGID_2_)" fill="#FFFFFF" width="13.483" height="105.644"/>
	<path clip-path="url(#SVGID_2_)" fill="#FFFFFF" d="M456.44,144.162c0-12.899-7.241-20.915-18.9-20.915
		c-11.85,0-19.211,8.016-19.211,20.915v65.672c0,12.901,7.361,20.915,19.211,20.915c11.659,0,18.9-8.014,18.9-20.915V144.162z
		 M443.266,210.765c0,2.298,0,9.288-5.726,9.288c-4.005,0-6.036-3.124-6.036-9.288v-67.532c0-6.061,2.031-9.135,6.036-9.135
		c3.799,0,5.726,3.074,5.726,9.135V210.765z"/>
	<path clip-path="url(#SVGID_2_)" fill="#FFFFFF" d="M548.202,155.117h-5.061v8.529c0,1.096,0,4.005-2.511,4.005
		c-1.75,0-2.637-1.439-2.637-4.278v-29.864c0-2.796,0.887-4.213,2.637-4.213c2.511,0,2.511,2.965,2.511,3.937v7.846h5.061v-7.502
		c0-5.551-2.734-8.733-7.507-8.733c-4.749,0-7.7,3.478-7.7,9.076v29.041c0,5.599,2.951,9.077,7.7,9.077
		c4.772,0,7.507-3.184,7.507-8.732V155.117z"/>
	<path clip-path="url(#SVGID_2_)" fill="#FFFFFF" d="M568.75,133.919c0-5.599-2.901-9.077-7.572-9.077
		c-4.748,0-7.699,3.479-7.699,9.077v29.041c0,5.6,2.951,9.077,7.699,9.077c4.671,0,7.572-3.478,7.572-9.077V133.919z
		 M563.751,163.373c0,2.839-0.865,4.278-2.573,4.278c-1.231,0-2.7-0.741-2.7-4.278v-29.865c0-3.481,1.469-4.212,2.7-4.212
		c1.176,0,2.573,0.73,2.573,4.212V163.373z"/>
	<path clip-path="url(#SVGID_2_)" fill="#FFFFFF" d="M587.438,171.628h4.503c-0.442-1.06-0.542-2.393-0.542-3.392v-13.085
		c0-3.096-1.271-5.053-3.781-5.821l-1.831-0.56l1.695-0.891c2.599-1.363,3.917-4.034,3.917-7.933v-6.166
		c0-5.979-2.321-8.528-7.762-8.528h-7.571v46.375h5.063v-20.824h1.615c3.595,0,3.595,3.41,3.595,5.444v11.645
		C586.339,169.125,586.532,170.754,587.438,171.628 M583.128,146.487h-1.999v-16.781h1.999c3.338,0,3.338,3.433,3.338,4.898v6.437
		C586.466,142.39,586.466,146.487,583.128,146.487"/>
	<path clip-path="url(#SVGID_2_)" fill="#FFFFFF" d="M613.543,134.604c0-6.817-2.328-9.352-8.592-9.352h-6.615v46.375h5.063v-19.386
		h1.615c6.138,0,8.529-2.795,8.529-9.967V134.604z M608.417,142.275c0,1.789,0,5.513-3.273,5.513h-1.745v-18.013h1.745
		c3.273,0,3.273,3.023,3.273,4.829V142.275z"/>
	<path clip-path="url(#SVGID_2_)" fill="#FFFFFF" d="M633.962,133.919c0-5.599-2.901-9.077-7.571-9.077
		c-4.75,0-7.699,3.479-7.699,9.077v29.041c0,5.6,2.949,9.077,7.699,9.077c4.67,0,7.571-3.478,7.571-9.077V133.919z M628.963,163.373
		c0,2.839-0.864,4.278-2.572,4.278c-1.232,0-2.7-0.741-2.7-4.278v-29.865c0-3.481,1.468-4.212,2.7-4.212
		c1.175,0,2.572,0.73,2.572,4.212V163.373z"/>
	<path clip-path="url(#SVGID_2_)" fill="#FFFFFF" d="M652.65,171.628h4.503c-0.441-1.06-0.541-2.393-0.541-3.392v-13.085
		c0-3.096-1.272-5.053-3.781-5.821l-1.831-0.56l1.695-0.891c2.598-1.363,3.917-4.034,3.917-7.933v-6.166
		c0-5.979-2.321-8.528-7.761-8.528h-7.573v46.375h5.063v-20.824h1.615c3.596,0,3.596,3.41,3.596,5.444v11.645
		C651.552,169.125,651.745,170.754,652.65,171.628 M648.34,146.487h-1.999v-16.781h1.999c3.338,0,3.338,3.433,3.338,4.898v6.437
		C651.678,142.39,651.678,146.487,648.34,146.487"/>
	<polygon clip-path="url(#SVGID_2_)" fill="#FFFFFF" points="694.899,125.252 678.545,125.252 678.545,129.775 684.158,129.775 
		684.158,171.627 689.283,171.627 689.283,129.775 694.899,129.775 	"/>
	<rect x="699.6" y="125.252" clip-path="url(#SVGID_2_)" fill="#FFFFFF" width="5.126" height="46.375"/>
	<path clip-path="url(#SVGID_2_)" fill="#FFFFFF" d="M727.248,133.919c0-5.599-2.9-9.077-7.57-9.077c-4.749,0-7.7,3.479-7.7,9.077
		v29.041c0,5.6,2.951,9.077,7.7,9.077c4.67,0,7.57-3.478,7.57-9.077V133.919z M722.249,163.373c0,2.839-0.863,4.278-2.571,4.278
		c-1.233,0-2.701-0.741-2.701-4.278v-29.865c0-3.481,1.468-4.212,2.701-4.212c1.174,0,2.571,0.73,2.571,4.212V163.373z"/>
	<polygon clip-path="url(#SVGID_2_)" fill="#FFFFFF" points="741.57,150.453 745.905,171.396 751.625,171.396 751.625,125.021 
		746.626,125.021 746.626,145.879 746.828,159.337 745.315,152.148 744.108,146.033 739.712,125.021 734.057,125.021 
		734.057,171.396 738.99,171.396 738.99,150.605 738.856,137.222 740.365,144.34 	"/>
	<path clip-path="url(#SVGID_2_)" fill="#FFFFFF" d="M548.268,191.127c0-5.598-2.901-9.077-7.572-9.077
		c-4.748,0-7.699,3.479-7.699,9.077v29.042c0,5.599,2.951,9.077,7.699,9.077c4.671,0,7.572-3.479,7.572-9.077V191.127z
		 M543.269,220.581c0,2.839-0.865,4.279-2.573,4.279c-1.231,0-2.7-0.742-2.7-4.279v-29.865c0-3.48,1.469-4.212,2.7-4.212
		c1.176,0,2.573,0.731,2.573,4.212V220.581z"/>
	<polygon clip-path="url(#SVGID_2_)" fill="#FFFFFF" points="568.174,203.147 560.647,203.147 560.647,186.983 568.493,186.983 
		568.493,182.461 555.584,182.461 555.584,228.835 560.647,228.835 560.647,207.464 568.174,207.464 	"/>
	<path clip-path="url(#SVGID_2_)" fill="#FFFFFF" d="M597.336,209.552c0-3.736-1.35-5.502-4.377-5.721l-3.323-0.274
		c-0.747-0.04-2.51-0.45-2.51-3.389v-9.452c0-3.479,1.47-4.212,2.701-4.212c2.447,0,2.447,2.964,2.447,3.938v6.268h5.062v-5.925
		c0-5.469-2.783-8.735-7.444-8.735c-4.787,0-7.763,3.48-7.763,9.077v10.275c0,3.733,1.406,5.552,4.424,5.72l3.341,0.276
		c1.465,0.093,2.381,1.418,2.381,3.456v9.727c0,2.839-0.866,4.28-2.574,4.28c-1.174,0-2.574-0.696-2.574-4.007v-6.884h-4.997v6.542
		c0,5.469,2.808,8.733,7.507,8.733c4.749,0,7.7-3.479,7.7-9.077V209.552z"/>
	<path clip-path="url(#SVGID_2_)" fill="#FFFFFF" d="M618.583,191.127c0-5.598-2.9-9.077-7.571-9.077
		c-4.748,0-7.699,3.479-7.699,9.077v29.042c0,5.599,2.951,9.077,7.699,9.077c4.671,0,7.571-3.479,7.571-9.077V191.127z
		 M613.585,220.581c0,2.839-0.865,4.279-2.573,4.279c-1.232,0-2.7-0.742-2.7-4.279v-29.865c0-3.48,1.468-4.212,2.7-4.212
		c1.175,0,2.573,0.731,2.573,4.212V220.581z"/>
	<path clip-path="url(#SVGID_2_)" fill="#FFFFFF" d="M641.172,182.461h-5.061v38.256c0,2.75-0.908,4.144-2.701,4.144
		s-2.701-1.394-2.701-4.144v-38.256h-5.062v37.914c0,5.471,2.974,8.871,7.763,8.871c4.715,0,7.762-3.483,7.762-8.871V182.461z"/>
	<polygon clip-path="url(#SVGID_2_)" fill="#FFFFFF" points="662.038,182.461 645.684,182.461 645.684,186.983 651.296,186.983 
		651.296,228.835 656.422,228.835 656.422,186.983 662.038,186.983 	"/>
	<polygon clip-path="url(#SVGID_2_)" fill="#FFFFFF" points="682.582,228.835 682.582,182.461 677.521,182.461 677.521,203.148 
		671.288,203.148 671.288,182.461 666.291,182.461 666.291,228.835 671.288,228.835 671.288,207.464 677.521,207.464 
		677.521,228.835 	"/>
	<polygon clip-path="url(#SVGID_2_)" fill="#FFFFFF" points="713.211,182.461 696.855,182.461 696.855,186.983 702.469,186.983 
		702.469,228.835 707.595,228.835 707.595,186.983 713.211,186.983 	"/>
	<polygon clip-path="url(#SVGID_2_)" fill="#FFFFFF" points="730.759,207.464 730.759,203.148 723.038,203.148 723.038,186.984 
		731.14,186.984 731.14,182.461 717.976,182.461 717.976,228.835 731.205,228.835 731.205,224.314 723.038,224.314 723.038,207.464 
			"/>
	<polygon clip-path="url(#SVGID_2_)" fill="#FFFFFF" points="746.24,228.835 751.637,228.835 746.139,205.448 751.514,182.461 
		746.311,182.461 742.512,204.425 738.793,182.461 733.532,182.461 739.018,205.854 733.473,228.835 738.8,228.835 742.521,208.11 	
		"/>
	<path clip-path="url(#SVGID_2_)" fill="#FFFFFF" d="M764.366,217.122l0.024,0.297l0.933,11.416h5.149l-5.49-46.374h-6.578
		l-5.49,46.374h5.211l0.894-11.713H764.366z M761.308,192.547l0.781-0.004l1.956,20.193h-4.7L761.308,192.547z"/>
	<path clip-path="url(#SVGID_2_)" fill="#FFFFFF" d="M789.143,209.552c0-3.736-1.35-5.502-4.377-5.721l-3.323-0.274
		c-0.747-0.04-2.51-0.45-2.51-3.389v-9.452c0-3.479,1.47-4.212,2.702-4.212c2.446,0,2.446,2.964,2.446,3.938v6.268h5.062v-5.925
		c0-5.469-2.782-8.735-7.444-8.735c-4.787,0-7.763,3.48-7.763,9.077v10.275c0,3.733,1.406,5.552,4.424,5.72l3.341,0.276
		c1.465,0.093,2.381,1.418,2.381,3.456v9.727c0,2.839-0.865,4.28-2.573,4.28c-1.175,0-2.575-0.696-2.575-4.007v-6.884h-4.997v6.542
		c0,5.469,2.808,8.733,7.507,8.733c4.749,0,7.7-3.479,7.7-9.077V209.552z"/>
	<polygon clip-path="url(#SVGID_2_)" fill="#FFFFFF" points="512.964,229.774 512.964,124.131 499.788,124.131 499.788,170.702 
		500.254,192.56 499.338,192.671 494.717,171.979 483.967,124.131 469.276,124.131 469.276,229.774 482.297,229.774 
		482.297,182.375 481.888,165.088 498.111,229.774 	"/>
	<path clip-path="url(#SVGID_2_)" fill="#FFFFFF" d="M671.887,160.075l0.024,0.297l0.934,11.416h5.149l-5.49-46.374h-6.578
		l-5.49,46.374h5.211l0.894-11.713H671.887z M668.828,135.5l0.782-0.003l1.956,20.192h-4.701L668.828,135.5z"/>
	<path clip-path="url(#SVGID_2_)" fill="#FFFFFF" d="M101.536,86.705c0,7.301,5.939,13.24,13.24,13.24
		c7.302,0,13.241-5.939,13.241-13.24c0-7.301-5.939-13.24-13.241-13.24C107.475,73.465,101.536,79.404,101.536,86.705"/>
	<path clip-path="url(#SVGID_2_)" fill="#FFFFFF" d="M113.757,3.244L0,117.002L113.757,230.76l113.758-113.758L113.757,3.244z
		 M42.471,92.183C52.693,62.037,81.259,40.28,114.814,40.28c34.005,0,62.885,22.343,72.744,53.117
		c0.056,0.173-0.075,0.354-0.257,0.354H177.3c-0.485,0-0.914-0.3-1.088-0.752c-9.521-24.631-33.449-42.15-61.398-42.15
		c-27.949,0-51.877,17.519-61.398,42.15c-0.175,0.452-0.603,0.752-1.088,0.752h-8.723C42.796,93.751,42.21,92.949,42.471,92.183
		 M137.23,86.705c0,12.382-10.073,22.455-22.454,22.455c-12.382,0-22.454-10.073-22.454-22.455s10.072-22.456,22.454-22.456
		C127.158,64.249,137.23,74.323,137.23,86.705 M89.053,188.524c-29.468-10.594-50.607-38.803-50.607-71.874
		c0-1.7,0.069-3.383,0.185-5.053c0.057-0.827,0.754-1.465,1.583-1.465h7.174c1.051,0,1.861,0.896,1.788,1.944
		c-0.106,1.512-0.161,3.036-0.161,4.574c0,27.148,16.535,50.497,40.058,60.538c0.596,0.253,0.984,0.826,0.997,1.474
		c0.056,2.863,0.259,5.718,0.593,8.553C90.769,188.114,89.904,188.831,89.053,188.524 M108.461,192.744
		c-0.495-0.042-0.908-0.407-1.01-0.892c-0.595-2.844-1.027-5.727-1.279-8.633c-0.061-0.706,0.552-1.28,1.257-1.2
		c2.425,0.276,4.887,0.43,7.385,0.43c2.465,0,4.893-0.15,7.286-0.42c0.704-0.079,1.317,0.496,1.256,1.203
		c-0.252,2.903-0.684,5.784-1.28,8.626c-0.102,0.486-0.515,0.852-1.01,0.893c-2.063,0.17-4.146,0.269-6.252,0.269
		C112.674,193.02,110.557,192.92,108.461,192.744 M126.799,215.663c-0.411,0.795-1.113,1.376-1.977,1.638
		c-0.317,0.097-0.645,0.144-0.972,0.144c-0.568,0-1.133-0.143-1.634-0.42l-2.389-1.324c-1.577-0.875-2.159-2.831-1.325-4.452
		c5.375-10.449,8.217-22.287,8.217-34.233c0-14.754-4.224-28.748-12.028-40.424c-7.805,11.676-12.028,25.67-12.028,40.424
		c0,11.947,2.841,23.784,8.216,34.233c0.834,1.621,0.253,3.576-1.324,4.451l-2.389,1.325c-0.501,0.277-1.067,0.42-1.634,0.42
		c-0.327,0-0.655-0.047-0.971-0.144c-0.865-0.261-1.568-0.843-1.978-1.638c-6.096-11.801-9.318-25.165-9.318-38.648
		c0-17.741,5.412-34.517,15.368-48.212c-0.329-0.363-0.645-0.737-0.982-1.097c-12.262-13.044-28.936-20.544-46.951-21.118
		c-1.824-0.058-3.252-1.514-3.252-3.315v-2.738c0-0.902,0.372-1.78,1.021-2.41c0.648-0.629,1.503-0.95,2.391-0.934
		c20.533,0.615,39.545,9.11,53.533,23.92c0.102,0.108,0.197,0.222,0.298,0.331c0.101-0.109,0.195-0.223,0.297-0.331
		c13.988-14.81,33-23.305,53.533-23.92c0.892-0.025,1.743,0.305,2.392,0.934c0.649,0.63,1.021,1.508,1.021,2.41v2.738
		c0,1.801-1.429,3.257-3.253,3.315c-18.014,0.574-34.689,8.074-46.951,21.118c-0.337,0.359-0.653,0.733-0.981,1.097
		c9.956,13.695,15.368,30.471,15.368,48.212C136.118,190.496,132.896,203.86,126.799,215.663 M141.095,188.337
		c-1.135,0.418-2.29-0.541-2.157-1.743c0.291-2.624,0.47-5.264,0.522-7.911c0.013-0.637,0.394-1.197,0.98-1.446
		c23.585-10.013,40.175-33.393,40.175-60.586c0-1.598-0.06-3.185-0.174-4.754c-0.069-0.952,0.666-1.764,1.62-1.764h7.31
		c0.854,0,1.573,0.657,1.632,1.51c0.113,1.656,0.181,3.324,0.181,5.008C191.184,149.527,170.292,177.601,141.095,188.337"/>
</g>
</svg>
