<?xml version="1.0" encoding="utf-8"?>
<!-- Generator: Adobe Illustrator 16.0.0, SVG Export Plug-In . SVG Version: 6.00 Build 0)  -->
<!DOCTYPE svg PUBLIC "-//W3C//DTD SVG 1.1//EN" "http://www.w3.org/Graphics/SVG/1.1/DTD/svg11.dtd">
<svg version="1.1" id="Layer_1" xmlns="http://www.w3.org/2000/svg" xmlns:xlink="http://www.w3.org/1999/xlink" x="0px" y="0px"
	 width="178px" height="85.307px" viewBox="0 0 178 85.307" enable-background="new 0 0 178 85.307" xml:space="preserve">
<g>
	<defs>
		<rect id="SVGID_1_" y="0" width="734.099" height="96.14"/>
	</defs>
	<clipPath id="SVGID_2_">
		<use xlink:href="#SVGID_1_"  overflow="visible"/>
	</clipPath>
	<path clip-path="url(#SVGID_2_)" fill="#363F45" d="M298.299,34.554c-3.377,0-6.451,1.355-8.753,3.538
		c-0.001,0.002-0.003,0.003-0.006,0.004c-0.005,0.007-0.01,0.012-0.015,0.018c-0.469,0.447-0.906,0.929-1.306,1.441
		c-4.968,5.596-5.774,7.912-9.326,11.493c-0.166,0.167-0.338,0.338-0.518,0.511c-0.191,0.187-0.388,0.374-0.596,0.567
		c-0.909,0.768-2.404,1.632-4.533,1.632c-3.819,0-5.884-3.648-5.884-6.299c0-2.511,1.686-6.022,5.437-6.022
		c3.785,0,6.126,2.995,6.229,3.132l-0.035-0.035l1.135,1.321l4.406-5.381c-0.172-0.241-4.439-5.92-11.735-5.92
		c-3.613,0-6.883,1.515-9.188,4.268c-1.997,2.375-3.132,5.541-3.132,8.637c0,3.132,1.204,6.333,3.303,8.776
		c2.444,2.822,5.817,4.405,9.464,4.405c4.866,0,8.36-2.389,10.282-4.51c0.007-0.008,0.015-0.015,0.023-0.023
		c4.653-4.985,8.125-9.844,8.131-9.853l1.561-1.889l0.001,0.001c1.076-1.734,2.945-2.93,5.055-2.93c3.338,0,6.057,2.926,6.057,6.263
		c0,3.339-2.719,6.058-6.057,6.058c-3.023,0-5.551-2.28-5.958-5.225l-4.966,6.042c2.285,3.638,6.323,6.065,10.924,6.065
		c7.158,0,12.94-5.815,12.94-12.941C311.239,40.576,305.457,34.554,298.299,34.554"/>
</g>
<text transform="matrix(1 0 0 1 314.1997 58.167)" fill="#47A5A5" font-family="'ProximaNova-Black'" font-size="32.3927">NNECT</text>
<g>
	<defs>
		<rect id="SVGID_3_" y="0" width="734.099" height="96.14"/>
	</defs>
	<clipPath id="SVGID_4_">
		<use xlink:href="#SVGID_3_"  overflow="visible"/>
	</clipPath>
	<path clip-path="url(#SVGID_4_)" fill="#458C06" d="M108.651,26.894c0.366-0.258,0.712-0.549,1.035-0.872
		c1.479-1.478,2.293-3.443,2.293-5.532c0-2.09-0.814-4.055-2.292-5.533c-1.479-1.479-3.444-2.293-5.534-2.292
		c-1.716-0.001-3.347,0.546-4.72,1.582c-0.276,0.21-0.538,0.436-0.816,0.707l-9.926,9.926L87.1,23.29l-2.012-2.012l-9.912-9.912
		c-0.174-0.18-0.329-0.358-0.466-0.538c-0.657-0.87-1.004-1.908-1.005-3.002c0-1.329,0.518-2.579,1.46-3.521
		c0.941-0.94,2.191-1.459,3.52-1.459c2.746,0,4.98,2.235,4.981,4.98h2.845c0-1.329,0.518-2.579,1.459-3.52
		c0.941-0.941,2.191-1.46,3.521-1.46c1.329,0,2.579,0.519,3.52,1.459c0.941,0.942,1.459,2.192,1.459,3.522
		c0,1.093-0.347,2.131-1.001,2.997c-0.138,0.181-0.29,0.356-0.462,0.534l-8.283,8.283l2.012,2.013l8.298-8.298l0.007-0.008
		c0.256-0.262,0.482-0.525,0.696-0.805c1.033-1.369,1.579-2.999,1.579-4.716c0-2.09-0.814-4.055-2.292-5.533
		C95.545,0.814,93.58,0,91.49,0.001C89.401,0,87.437,0.814,85.958,2.293c-0.323,0.323-0.614,0.668-0.872,1.035
		C83.668,1.316,81.327,0,78.685,0c-2.089,0-4.054,0.814-5.533,2.293c-1.479,1.478-2.293,3.443-2.292,5.532
		c0,1.719,0.546,3.349,1.583,4.722c0.211,0.277,0.437,0.538,0.706,0.815l9.926,9.927l-0.795,0.795h0.001L69.726,36.639l-0.165,0.166
		c-0.181,0.175-0.358,0.328-0.537,0.465c-0.871,0.657-1.909,1.005-3.002,1.004c-1.329,0-2.58-0.518-3.521-1.459
		c-0.94-0.94-1.458-2.191-1.459-3.521c0-1.329,0.519-2.579,1.46-3.52c0.94-0.94,2.191-1.459,3.52-1.459v-2.846
		c-2.746,0-4.98-2.234-4.98-4.979c0-1.33,0.519-2.58,1.459-3.521c0.941-0.941,2.192-1.46,3.521-1.46c1.094,0,2.132,0.348,2.996,1
		c0.186,0.143,0.363,0.296,0.528,0.456l8.48,8.48l2.012-2.013l-8.494-8.494c-0.262-0.254-0.524-0.479-0.805-0.695
		c-1.368-1.032-2.999-1.579-4.717-1.579c-2.089,0-4.054,0.814-5.533,2.293c-1.478,1.478-2.293,3.443-2.293,5.533
		c0.001,2.641,1.317,4.982,3.329,6.4c-0.367,0.258-0.713,0.549-1.036,0.872c-1.478,1.479-2.292,3.444-2.292,5.532
		c-0.001,2.09,0.814,4.055,2.292,5.534c1.479,1.478,3.444,2.293,5.533,2.292c1.717,0.001,3.348-0.546,4.721-1.582
		c0.276-0.21,0.538-0.437,0.816-0.707l9.926-9.927l1.591,1.591l2.012,2.011L95,42.418c0.174,0.179,0.328,0.357,0.466,0.538
		c0.657,0.869,1.004,1.907,1.004,3.001c0,1.329-0.518,2.58-1.459,3.521c-0.941,0.939-2.191,1.459-3.521,1.459
		c-2.745,0-4.98-2.234-4.98-4.98h-2.845c0,1.329-0.518,2.58-1.459,3.52c-0.941,0.94-2.192,1.46-3.521,1.459
		c-1.329,0-2.579-0.519-3.52-1.458c-0.941-0.941-1.459-2.192-1.46-3.521c0-1.093,0.348-2.131,1.002-2.997
		c0.14-0.184,0.293-0.361,0.454-0.528l8.01-8.01l-2.012-2.012l-8.024,8.025c-0.256,0.264-0.484,0.526-0.696,0.806
		c-1.033,1.368-1.58,2.999-1.579,4.716c-0.001,2.089,0.814,4.054,2.292,5.533c1.479,1.479,3.444,2.293,5.533,2.292
		c2.09,0,4.054-0.813,5.533-2.292c0.323-0.323,0.614-0.669,0.872-1.035c1.418,2.011,3.758,3.327,6.401,3.328
		c2.089,0,4.054-0.814,5.533-2.293c1.478-1.479,2.292-3.444,2.292-5.533c0-1.718-0.546-3.349-1.583-4.722
		c-0.211-0.276-0.437-0.538-0.706-0.815L87.1,30.495l0.795-0.795l12.72-12.721c0.18-0.175,0.358-0.328,0.537-0.465
		c0.871-0.657,1.908-1.005,3.002-1.005c1.329,0,2.58,0.519,3.52,1.46c0.941,0.941,1.459,2.191,1.459,3.521
		c0,1.329-0.518,2.579-1.459,3.52c-0.941,0.941-2.191,1.459-3.52,1.459v2.846c2.746,0,4.979,2.234,4.979,4.979
		c0,1.331-0.518,2.581-1.459,3.521c-0.941,0.941-2.191,1.46-3.52,1.46c-1.094-0.001-2.132-0.348-2.996-1.001
		c-0.186-0.142-0.364-0.296-0.528-0.455l-8.161-8.16l-2.012,2.011l8.175,8.176c0.262,0.254,0.523,0.48,0.805,0.695
		c1.368,1.033,2.999,1.579,4.717,1.579c2.089,0.001,4.054-0.814,5.533-2.292c1.478-1.479,2.293-3.444,2.292-5.534
		C111.979,30.652,110.663,28.312,108.651,26.894 M85.088,28.481l-1.59-1.59l1.59-1.591l1.59,1.591L85.088,28.481z"/>
	<g clip-path="url(#SVGID_4_)">
		<text transform="matrix(1 0 0 1 0 85.3184)" fill="#458C06" font-family="'Montserrat-Bold'" font-size="23.9402">FEED A CHILD</text>
	</g>
</g>
<g>
	<defs>
		<path id="SVGID_5_" d="M540.732,58.086c0-8.44,6.828-15.26,15.26-15.26h0.339c4.79,0.08,9.08,2.41,11.79,5.98
			c-1.23,1.52-3.139,2.5-5.22,2.5c-0.931,0-1.819-0.21-2.62-0.549c-0.299-0.17-0.601-0.341-0.94-0.471
			c-1.01-0.471-2.16-0.682-3.349-0.682c-4.701,0-8.481,3.781-8.481,8.481c0,4.67,3.78,8.479,8.481,8.479
			c1.188,0,2.339-0.25,3.349-0.72c0.34-0.13,0.642-0.3,0.94-0.46c0.801-0.34,1.689-0.509,2.62-0.509c2.081,0,3.989,0.929,5.22,2.459
			c-2.71,3.56-7,5.89-11.79,5.97c-0.119,0.05-0.25,0.05-0.339,0.05C547.561,73.355,540.732,66.485,540.732,58.086 M551.181,33.396
			c-0.04,0-0.079,0.01-0.12,0.02c-0.42,0.09-0.84,0.18-1.25,0.29c-2,0.51-3.908,1.26-5.68,2.23c-0.46,0.25-0.91,0.52-1.349,0.8
			c-0.021,0-0.031,0.01-0.041,0.03c-3.32,2.09-6.089,4.96-8.08,8.339c0,0-0.009,0-0.009,0.01c-0.29,0.481-0.552,0.981-0.802,1.481
			c-0.67,1.33-1.219,2.72-1.618,4.17c-0.271,0.88-0.472,1.79-0.62,2.709c-0.012,0.01-0.012,0.01-0.012,0.021
			c-0.219,1.329-0.34,2.698-0.34,4.1c0,1.22,0.09,2.42,0.261,3.6c1.739,11.909,12.011,21.062,24.409,21.062
			c13.621,0,24.66-11.041,24.66-24.661c0-12.61-9.46-23-21.669-24.47c-0.98-0.13-1.979-0.19-2.991-0.19
			C554.301,32.936,552.721,33.096,551.181,33.396"/>
	</defs>
	<clipPath id="SVGID_6_">
		<use xlink:href="#SVGID_5_"  overflow="visible"/>
	</clipPath>
	
		<radialGradient id="SVGID_7_" cx="0" cy="96.1396" r="1" gradientTransform="matrix(42.8568 0 0 -42.8568 539.4688 4162.3823)" gradientUnits="userSpaceOnUse">
		<stop  offset="0" style="stop-color:#ED2079"/>
		<stop  offset="0.5374" style="stop-color:#ED2079"/>
		<stop  offset="1" style="stop-color:#6B2063"/>
	</radialGradient>
	<rect x="531.261" y="32.936" clip-path="url(#SVGID_6_)" fill="url(#SVGID_7_)" width="49.33" height="49.321"/>
</g>
<g>
	<defs>
		<rect id="SVGID_8_" y="0" width="734.099" height="96.14"/>
	</defs>
	<clipPath id="SVGID_9_">
		<use xlink:href="#SVGID_8_"  overflow="visible"/>
	</clipPath>
	<path clip-path="url(#SVGID_9_)" fill="#ED2079" d="M558.936,32.944c0,2.149-1.741,3.893-3.893,3.893
		c-2.149,0-3.892-1.744-3.892-3.893s1.742-3.893,3.892-3.893C557.194,29.051,558.936,30.795,558.936,32.944"/>
	<path clip-path="url(#SVGID_9_)" fill="#ED2079" d="M544.252,40.665c0,3.221-2.61,5.832-5.832,5.832s-5.831-2.611-5.831-5.832
		s2.609-5.832,5.831-5.832S544.252,37.444,544.252,40.665"/>
	<path clip-path="url(#SVGID_9_)" fill="#FFFFFF" d="M535.89,48.427c0,2.826-2.291,5.118-5.118,5.118s-5.118-2.292-5.118-5.118
		c0-2.827,2.291-5.118,5.118-5.118S535.89,45.6,535.89,48.427"/>
	<path clip-path="url(#SVGID_9_)" fill="#FFFFFF" d="M551.24,34.668c0,2.476-2.008,4.483-4.482,4.483
		c-2.478,0-4.485-2.007-4.485-4.483c0-2.477,2.008-4.484,4.485-4.484C549.232,30.184,551.24,32.191,551.24,34.668"/>
	<path clip-path="url(#SVGID_9_)" fill="#ED2079" d="M534.144,47.898c0,1.716-1.392,3.106-3.106,3.106s-3.107-1.391-3.107-3.106
		s1.393-3.106,3.107-3.106S534.144,46.183,534.144,47.898"/>
	<path clip-path="url(#SVGID_9_)" fill="#ED2079" d="M534.447,32.834c0,1.231-1,2.23-2.23,2.23c-1.233,0-2.232-0.999-2.232-2.23
		c0-1.232,0.999-2.231,2.232-2.231C533.447,30.603,534.447,31.602,534.447,32.834"/>
	<path clip-path="url(#SVGID_9_)" fill="#ED2079" d="M525.146,44.1c0,1.232-1,2.23-2.23,2.23c-1.233,0-2.232-0.998-2.232-2.23
		s0.999-2.231,2.232-2.231C524.146,41.869,525.146,42.868,525.146,44.1"/>
	<path clip-path="url(#SVGID_9_)" fill="#ED2079" d="M555.544,24.559c0,1.232-0.999,2.231-2.23,2.231
		c-1.233,0-2.231-0.999-2.231-2.231c0-1.231,0.998-2.23,2.231-2.23C554.545,22.329,555.544,23.328,555.544,24.559"/>
	<path clip-path="url(#SVGID_9_)" fill="#ED2079" d="M533.625,15.269c0,0.765-0.619,1.384-1.384,1.384
		c-0.763,0-1.383-0.619-1.383-1.384c0-0.764,0.62-1.383,1.383-1.383C533.006,13.886,533.625,14.504,533.625,15.269"/>
	<path clip-path="url(#SVGID_9_)" fill="#ED2079" d="M544.926,24.59c0,0.713-0.577,1.29-1.291,1.29c-0.712,0-1.289-0.577-1.289-1.29
		c0-0.712,0.577-1.29,1.289-1.29C544.349,23.3,544.926,23.878,544.926,24.59"/>
	<path clip-path="url(#SVGID_9_)" fill="#ED2079" d="M525.5,34.304c0,0.712-0.578,1.29-1.291,1.29s-1.289-0.578-1.289-1.29
		c0-0.713,0.576-1.291,1.289-1.291S525.5,33.591,525.5,34.304"/>
	<path clip-path="url(#SVGID_9_)" fill="#ED2079" d="M529.166,25.879c0,0.712-0.576,1.29-1.289,1.29c-0.714,0-1.29-0.578-1.29-1.29
		c0-0.713,0.576-1.29,1.29-1.29C528.59,24.589,529.166,25.166,529.166,25.879"/>
	<path clip-path="url(#SVGID_9_)" fill="#ED2079" d="M547.998,18.842c0,0.712-0.577,1.29-1.29,1.29s-1.29-0.578-1.29-1.29
		c0-0.713,0.577-1.291,1.29-1.291S547.998,18.129,547.998,18.842"/>
	<path clip-path="url(#SVGID_9_)" fill="#ED2079" d="M549.863,34.274c0,1.716-1.391,3.106-3.105,3.106
		c-1.716,0-3.107-1.39-3.107-3.106s1.392-3.106,3.107-3.106C548.473,31.168,549.863,32.559,549.863,34.274"/>
	<path clip-path="url(#SVGID_9_)" fill="#ED2079" d="M534.926,57.335c0,2.149-1.743,3.893-3.894,3.893
		c-2.149,0-3.892-1.743-3.892-3.893c0-2.15,1.742-3.893,3.892-3.893C533.183,53.442,534.926,55.185,534.926,57.335"/>
	<path clip-path="url(#SVGID_9_)" fill="#010101" d="M597.777,48.669v1.858c-0.57-0.544-1.102-0.938-1.594-1.18
		c-0.805-0.399-1.628-0.6-2.467-0.6c-0.957,0-1.857,0.255-2.703,0.767c-0.918,0.544-1.618,1.298-2.103,2.261
		c-0.406,0.799-0.61,1.654-0.61,2.565c0,1.664,0.617,3.027,1.848,4.089c1.075,0.931,2.269,1.396,3.578,1.396
		c0.747,0,1.446-0.143,2.1-0.428c0.651-0.285,1.303-0.731,1.951-1.342v1.868c-1.271,0.871-2.618,1.309-4.04,1.309
		c-1.128,0-2.198-0.27-3.215-0.808c-1.291-0.682-2.273-1.657-2.948-2.929c-0.525-0.996-0.786-2.055-0.786-3.175
		c0-1.146,0.277-2.238,0.836-3.273c0.634-1.186,1.529-2.109,2.682-2.771c1.081-0.624,2.251-0.935,3.51-0.935
		c0.74,0,1.417,0.103,2.029,0.31C596.458,47.858,597.102,48.197,597.777,48.669"/>
	<path clip-path="url(#SVGID_9_)" fill="#010101" d="M614.104,54.844l4.252,6.016l-1.828-0.004l-4.035-5.897l-0.384-0.001
		l-0.014,5.888l-1.504-0.003l0.032-13.417l2.172,0.005c0.766,0.002,1.396,0.06,1.891,0.172c0.494,0.112,0.936,0.3,1.322,0.563
		c0.483,0.331,0.852,0.77,1.107,1.32c0.247,0.537,0.37,1.111,0.368,1.721c-0.002,1.017-0.31,1.854-0.925,2.515
		C615.945,54.38,615.128,54.755,614.104,54.844 M612.113,53.641l0.934,0.002c0.911,0.002,1.604-0.177,2.085-0.536
		c0.584-0.444,0.877-1.079,0.878-1.905c0.003-0.878-0.32-1.523-0.967-1.938c-0.465-0.289-1.141-0.434-2.025-0.437l-0.894-0.002
		L612.113,53.641z"/>
	<polygon clip-path="url(#SVGID_9_)" fill="#010101" points="637.748,48.884 632.304,48.871 632.295,52.852 637.593,52.863 
		637.59,54.26 632.29,54.247 632.278,59.497 637.725,59.509 637.722,60.904 630.771,60.889 630.804,47.472 637.752,47.488 	"/>
	<path clip-path="url(#SVGID_9_)" fill="#010101" d="M657.93,57.157l-5.731-0.013l-1.63,3.79l-1.632-0.004l6.216-14.041
		l5.992,14.069l-1.643-0.004L657.93,57.157z M657.342,55.761l-2.229-5.382l-2.302,5.371L657.342,55.761z"/>
	<polygon clip-path="url(#SVGID_9_)" fill="#010101" points="675.522,48.972 675.495,60.992 673.991,60.989 674.019,48.968 
		670.775,48.961 670.779,47.564 678.79,47.583 678.787,48.979 	"/>
	
		<rect x="684.897" y="53.57" transform="matrix(0.0023 -1 1 0.0023 635.7238 745.8034)" clip-path="url(#SVGID_9_)" fill="#010101" width="13.417" height="1.504"/>
	<polygon clip-path="url(#SVGID_9_)" fill="#010101" points="705.967,47.646 709.757,57.888 713.585,47.665 715.217,47.667 
		709.729,61.868 704.326,47.643 	"/>
	<polygon clip-path="url(#SVGID_9_)" fill="#010101" points="734.096,49.108 728.651,49.096 728.642,53.076 733.939,53.088 
		733.937,54.484 728.639,54.472 728.625,59.721 734.072,59.733 734.068,61.129 727.118,61.113 727.15,47.696 734.1,47.712 	"/>
	<path clip-path="url(#SVGID_9_)" fill="#010101" d="M634.168,71.55l-1.794-0.004l-0.51,1.187l-0.512-0.002l1.944-4.395l1.876,4.404
		l-0.513-0.002L634.168,71.55z M633.984,71.112l-0.698-1.684l-0.722,1.681L633.984,71.112z"/>
	<path clip-path="url(#SVGID_9_)" fill="#010101" d="M645.301,70.656l1.75,0.004c0,0.32-0.021,0.566-0.061,0.738
		c-0.091,0.418-0.325,0.764-0.701,1.038c-0.367,0.27-0.779,0.404-1.233,0.403c-0.371-0.001-0.723-0.096-1.052-0.283
		c-0.371-0.212-0.654-0.506-0.853-0.881c-0.165-0.314-0.247-0.65-0.247-1.007c0-0.416,0.112-0.8,0.332-1.153
		c0.208-0.331,0.486-0.588,0.835-0.771c0.323-0.168,0.667-0.253,1.035-0.252c0.482,0.001,0.912,0.145,1.284,0.431
		c0.139,0.106,0.3,0.27,0.48,0.487l-0.344,0.313c-0.145-0.188-0.276-0.332-0.396-0.429c-0.299-0.24-0.642-0.361-1.025-0.362
		c-0.284-0.001-0.552,0.066-0.805,0.201c-0.294,0.156-0.521,0.375-0.688,0.66c-0.156,0.269-0.235,0.563-0.236,0.882
		c-0.001,0.499,0.18,0.915,0.539,1.25c0.34,0.315,0.723,0.473,1.147,0.474c0.373,0.001,0.709-0.12,1.009-0.364
		c0.152-0.126,0.265-0.263,0.339-0.409c0.075-0.146,0.119-0.323,0.134-0.53l-1.246-0.003L645.301,70.656z"/>
	<polygon clip-path="url(#SVGID_9_)" fill="#010101" points="657.65,69.029 655.947,69.025 655.943,70.271 657.602,70.275 
		657.6,70.712 655.943,70.708 655.938,72.351 657.643,72.354 657.642,72.792 655.467,72.787 655.477,68.588 657.652,68.592 	"/>
	<polygon clip-path="url(#SVGID_9_)" fill="#010101" points="666.063,72.812 666.074,68.437 669.338,71.872 669.346,68.62 
		669.817,68.621 669.806,73.011 666.542,69.576 666.534,72.813 	"/>
	<path clip-path="url(#SVGID_9_)" fill="#010101" d="M681.673,68.993l-0.002,0.581c-0.178-0.17-0.344-0.294-0.497-0.369
		c-0.252-0.126-0.51-0.189-0.771-0.191c-0.299,0-0.582,0.08-0.846,0.239c-0.287,0.17-0.509,0.404-0.66,0.706
		c-0.128,0.25-0.192,0.518-0.193,0.802c-0.001,0.521,0.191,0.949,0.575,1.282c0.335,0.291,0.709,0.438,1.119,0.439
		c0.233,0,0.453-0.044,0.657-0.133c0.203-0.089,0.407-0.228,0.611-0.419l-0.002,0.585c-0.397,0.271-0.82,0.407-1.264,0.406
		c-0.354-0.001-0.688-0.086-1.006-0.255c-0.404-0.214-0.71-0.521-0.921-0.919c-0.163-0.312-0.244-0.644-0.243-0.994
		c0.001-0.359,0.089-0.7,0.263-1.023c0.201-0.371,0.481-0.659,0.842-0.865c0.339-0.194,0.705-0.291,1.1-0.29
		c0.23,0.001,0.442,0.033,0.635,0.098C681.262,68.739,681.462,68.845,681.673,68.993"/>
	<polygon clip-path="url(#SVGID_9_)" fill="#010101" points="690.963,71.064 689.594,68.667 690.136,68.668 691.201,70.545 
		692.291,68.674 692.836,68.675 691.435,71.065 691.431,72.871 690.958,72.87 	"/>
</g>
</svg>
