<?xml version="1.0" encoding="utf-8"?>
<!-- Generator: Adobe Illustrator 16.0.0, SVG Export Plug-In . SVG Version: 6.00 Build 0)  -->
<!DOCTYPE svg PUBLIC "-//W3C//DTD SVG 1.1//EN" "http://www.w3.org/Graphics/SVG/1.1/DTD/svg11.dtd">
<svg version="1.1" id="Layer_1" xmlns="http://www.w3.org/2000/svg" xmlns:xlink="http://www.w3.org/1999/xlink" x="0px" y="0px"
	 width="157.849px" height="81.462px" viewBox="0 0 157.849 81.462" enable-background="new 0 0 157.849 81.462"
	 xml:space="preserve">
<g>
	<defs>
		<rect id="SVGID_1_" x="-551.336" y="0" width="709.185" height="81.462"/>
	</defs>
	<clipPath id="SVGID_2_">
		<use xlink:href="#SVGID_1_"  overflow="visible"/>
	</clipPath>
	<path clip-path="url(#SVGID_2_)" fill="#CB2027" d="M15.384,55.294c-3.706,0-6.709-3.003-6.709-6.71
		c0-3.704,3.003-6.709,6.709-6.709c3.255,0,5.969,2.32,6.581,5.395h6.675c-0.66-6.741-6.343-12.004-13.256-12.004
		c-0.583,0-1.157,0.037-1.722,0.109l4.831-9.656c2.572-4.816,0.956-10.8-3.69-13.662c-0.036-0.026-0.082-0.033-0.125-0.018
		c-0.043,0.011-0.076,0.043-0.092,0.085L2.877,43.991c-0.527,1.432-0.814,2.979-0.814,4.594c0,7.358,5.964,13.322,13.321,13.322
		c6.913,0,12.596-5.265,13.256-12.005h-6.675C21.353,52.978,18.639,55.294,15.384,55.294"/>
	<path clip-path="url(#SVGID_2_)" fill="#CB2027" d="M11.532,16.098c-0.88-0.785-1.907-1.432-3.063-1.892
		c-0.04-0.017-0.086-0.015-0.127,0.004c-0.039,0.021-0.067,0.059-0.075,0.103L4.521,35.179L11.532,16.098z"/>
	<path clip-path="url(#SVGID_2_)" fill="#CB2027" d="M5.919,18.924c-1.06-0.694-2.264-1.205-3.574-1.476
		c-0.043-0.01-0.089-0.002-0.124,0.026c-0.036,0.026-0.058,0.068-0.058,0.113L2.095,40.236L5.919,18.924z"/>
	<g clip-path="url(#SVGID_2_)">
		<text transform="matrix(1 0 0 1 31.7246 56.4517)"><tspan x="0" y="0" fill="#231F20" font-family="'Nunito-Bold'" font-size="29.3043">et</tspan><tspan x="26.021" y="0" fill="#231F20" font-family="'Nunito-Bold'" font-size="29.3043">te</tspan><tspan x="52.395" y="0" fill="#231F20" font-family="'Nunito-Bold'" font-size="29.3043">r</tspan><tspan x="63.325" y="0" fill="#231F20" font-family="'Nunito-Bold'" font-size="29.3043">da</tspan><tspan x="96.761" y="0" fill="#231F20" font-family="'Nunito-Bold'" font-size="29.3043">y</tspan><tspan x="111.999" y="0" fill="#231F20" font-family="'Nunito-Bold'" font-size="29.3043">s</tspan></text>
	</g>
</g>
<text transform="matrix(1 0 0 1 133.7773 66.0952)"><tspan x="0" y="0" fill="#231F20" font-family="'Nunito-Bold'" font-size="12.1316">.</tspan><tspan x="2.863" y="0" fill="#231F20" font-family="'Nunito-Bold'" font-size="12.1316">o</tspan><tspan x="9.839" y="0" fill="#231F20" font-family="'Nunito-Bold'" font-size="12.1316">r</tspan><tspan x="14.363" y="0" fill="#231F20" font-family="'Nunito-Bold'" font-size="12.1316">g</tspan></text>
<g>
	<defs>
		<rect id="SVGID_3_" x="-551.336" y="0" width="709.185" height="81.462"/>
	</defs>
	<clipPath id="SVGID_4_">
		<use xlink:href="#SVGID_3_"  overflow="visible"/>
	</clipPath>
	<path clip-path="url(#SVGID_4_)" fill="#48BCC7" d="M-262.923,36.83l-21.539-21.538c-2.154-2.155-5.646-2.155-7.801,0
		c-2.156,2.155-2.156,5.646,0,7.802l17.637,17.637l3.901-3.901C-268.569,34.675-265.079,34.675-262.923,36.83"/>
	<path clip-path="url(#SVGID_4_)" fill="#48BCC7" d="M-266.824,46.249c-1.412,0-2.823-0.539-3.901-1.617l-3.901-3.901
		l-17.637,17.637c-2.156,2.155-2.156,5.647,0,7.803c1.077,1.077,2.489,1.616,3.9,1.616c1.413,0,2.824-0.539,3.901-1.616
		l21.539-21.539C-264.001,45.709-265.412,46.249-266.824,46.249"/>
	<path clip-path="url(#SVGID_4_)" fill="#329096" d="M-266.824,46.249c1.412,0,2.823-0.539,3.901-1.617
		c2.155-2.153,2.155-5.646,0-7.802c-2.155-2.155-5.647-2.155-7.802,0l-3.901,3.901l3.901,3.901
		C-269.647,45.709-268.236,46.249-266.824,46.249"/>
	<path clip-path="url(#SVGID_4_)" fill="#B329B7" d="M-259.69,33.597c-2.155-2.155-2.155-5.647,0-7.803l3.901-3.9l-17.637-17.638
		c-2.156-2.155-5.647-2.155-7.802,0c-2.155,2.155-2.155,5.648,0,7.803L-259.69,33.597z"/>
	<path clip-path="url(#SVGID_4_)" fill="#B329B7" d="M-251.888,33.597l10.094-10.094c2.155-2.155,2.155-5.647,0-7.802
		c-2.156-2.156-5.647-2.156-7.802,0l-6.193,6.193l3.901,3.9C-249.733,27.95-249.733,31.442-251.888,33.597"/>
	<path clip-path="url(#SVGID_4_)" fill="#86258E" d="M-259.69,33.597c1.078,1.077,2.489,1.616,3.901,1.616s2.824-0.539,3.901-1.616
		c2.155-2.155,2.155-5.647,0-7.803l-3.901-3.9l-3.901,3.9C-261.846,27.95-261.846,31.442-259.69,33.597"/>
	<path clip-path="url(#SVGID_4_)" fill="#AECB40" d="M-259.69,47.865l-21.538,21.538c-2.155,2.155-2.155,5.646,0,7.802
		c1.078,1.078,2.489,1.617,3.901,1.617c1.411,0,2.823-0.539,3.901-1.617l17.637-17.637l-3.901-3.9
		C-261.846,53.512-261.846,50.02-259.69,47.865"/>
	<path clip-path="url(#SVGID_4_)" fill="#AECB40" d="M-251.888,47.865c2.155,2.155,2.155,5.647,0,7.803l-3.901,3.9l6.193,6.193
		c1.078,1.077,2.489,1.616,3.901,1.616c1.411,0,2.823-0.539,3.901-1.616c2.155-2.155,2.155-5.647,0-7.803L-251.888,47.865z"/>
	<path clip-path="url(#SVGID_4_)" fill="#94A839" d="M-251.888,47.865c-2.155-2.155-5.647-2.155-7.802,0
		c-2.156,2.155-2.156,5.647,0,7.803l3.901,3.9l3.901-3.9C-249.733,53.512-249.733,50.02-251.888,47.865"/>
</g>
<text transform="matrix(1 0 0 1 -236.0352 50.8579)"><tspan x="0" y="0" fill="#48BCC7" font-family="'Nunito-ExtraBold'" font-size="23.8087">ENG</tspan><tspan x="49.593" y="0" fill="#48BCC7" font-family="'Nunito-ExtraBold'" font-size="23.8087">A</tspan><tspan x="67.021" y="0" fill="#48BCC7" font-family="'Nunito-ExtraBold'" font-size="23.8087">GE </tspan></text>
<text transform="matrix(1 0 0 1 -130.7051 50.8579)" fill="#AECB40" font-family="'Nunito-ExtraBold'" font-size="23.8087">INC</text>
<g>
	<defs>
		<path id="SVGID_5_" d="M-523.024,29.482c0,0-16.606,5.373-17.647,5.709c-1.462,0.468-9.336,2.526-10.126,8.71
			c-1.03,8.073-0.266,14.375-0.266,14.375c0.665-4.256,5.869-6.974,8.704-8.066c2.838-1.09,12.856-4.244,20.011-6.188
			c8.284-2.254,8.128-7.066,8.128-7.066l0.115-14.952C-514.781,26.245-523.024,29.482-523.024,29.482"/>
	</defs>
	<clipPath id="SVGID_6_">
		<use xlink:href="#SVGID_5_"  overflow="visible"/>
	</clipPath>
	
		<linearGradient id="SVGID_7_" gradientUnits="userSpaceOnUse" x1="-551.3359" y1="81.4614" x2="-550.3359" y2="81.4614" gradientTransform="matrix(-36.9994 -0.2812 0.2812 -36.9994 -20936.2246 2899.2986)">
		<stop  offset="0" style="stop-color:#273B94"/>
		<stop  offset="0.022" style="stop-color:#273B94"/>
		<stop  offset="0.6154" style="stop-color:#356EB6"/>
		<stop  offset="0.989" style="stop-color:#3C75BB"/>
		<stop  offset="1" style="stop-color:#3C75BB"/>
	</linearGradient>
	<polygon clip-path="url(#SVGID_6_)" fill="url(#SVGID_7_)" points="-513.788,22.006 -551.825,21.717 -552.103,58.274 
		-514.066,58.563 	"/>
</g>
<g>
	<defs>
		<path id="SVGID_8_" d="M-550.728,0c0,0-0.426,10.168,0.146,14.444c0.885,6.626,8.376,8.256,9.891,8.797
			c0.858,0.305,12.385,4.222,16.278,5.544c0.803-0.26,1.291-0.418,1.291-0.418s7.79-3.069,8.828-7.145
			c-0.282-1.441-1.608-4.933-7.94-6.528c-7.189-1.816-17.094-5.361-19.915-6.496C-544.967,7.063-550.728,4.26-550.728,0z"/>
	</defs>
	<clipPath id="SVGID_9_">
		<use xlink:href="#SVGID_8_"  overflow="visible"/>
	</clipPath>
	
		<linearGradient id="SVGID_10_" gradientUnits="userSpaceOnUse" x1="-551.3359" y1="81.3325" x2="-550.3359" y2="81.3325" gradientTransform="matrix(-19.0759 -8.181 -8.181 19.0759 -10373.2441 -6042.7065)">
		<stop  offset="0" style="stop-color:#24356F"/>
		<stop  offset="0.022" style="stop-color:#24356F"/>
		<stop  offset="0.6154" style="stop-color:#356EB6"/>
		<stop  offset="0.989" style="stop-color:#3C75BB"/>
		<stop  offset="1" style="stop-color:#3C75BB"/>
	</linearGradient>
	<polygon clip-path="url(#SVGID_9_)" fill="url(#SVGID_10_)" points="-520.02,42.136 -561.581,24.313 -545.428,-13.353 
		-503.867,4.471 	"/>
</g>
<g>
	<defs>
		<path id="SVGID_11_" d="M-550.767,59.455c1.538,5.499,8.009,7.093,9.397,7.625c1.025,0.393,17.411,6.395,17.411,6.395
			s8.493,3.726,9.002,7.988l0.093-15.115c0,0,1.191-4.859-7.849-7.373c-7.143-1.986-16.96-5.764-19.753-6.967
			c-0.086-0.04-0.181-0.081-0.271-0.124C-545.589,53.083-549.998,55.629-550.767,59.455"/>
	</defs>
	<clipPath id="SVGID_12_">
		<use xlink:href="#SVGID_11_"  overflow="visible"/>
	</clipPath>
	
		<linearGradient id="SVGID_13_" gradientUnits="userSpaceOnUse" x1="-551.3359" y1="81.4526" x2="-550.3359" y2="81.4526" gradientTransform="matrix(39.3569 4.9448 4.9448 -39.3569 20744.0313 5996.1401)">
		<stop  offset="0" style="stop-color:#24356F"/>
		<stop  offset="0.022" style="stop-color:#24356F"/>
		<stop  offset="0.6154" style="stop-color:#356EB6"/>
		<stop  offset="0.989" style="stop-color:#3C75BB"/>
		<stop  offset="1" style="stop-color:#3C75BB"/>
	</linearGradient>
	<polygon clip-path="url(#SVGID_12_)" fill="url(#SVGID_13_)" points="-550.19,47.295 -510.014,52.343 -514.25,86.05 
		-554.425,81.002 	"/>
</g>
<g>
	<defs>
		<rect id="SVGID_14_" x="-551.336" y="0" width="709.185" height="81.462"/>
	</defs>
	<clipPath id="SVGID_15_">
		<use xlink:href="#SVGID_14_"  overflow="visible"/>
	</clipPath>
	<path clip-path="url(#SVGID_15_)" fill="#3A73BA" d="M-497.586,25.259v5.686c0.522-0.899,1.28-1.633,2.275-2.203
		c0.853-0.473,1.895-0.709,3.127-0.709c2.227,0,4.051,0.923,5.473,2.77c1.422,1.849,2.132,4.242,2.132,7.178
		c0,2.939-0.71,5.332-2.132,7.179c-0.711,0.902-1.67,1.553-2.878,1.955c-1.208,0.401-2.406,0.605-3.59,0.605
		c-2.274,0-4.383-0.594-6.325-1.778c-1.943-1.184-2.915-3.458-2.915-6.824V22.844h2.418c0.663,0,1.231,0.237,1.705,0.709
		C-497.823,24.029-497.586,24.597-497.586,25.259 M-489.483,37.769c0-1.706-0.355-3.032-1.066-3.98
		c-0.71-0.996-1.683-1.492-2.913-1.492c-1.328,0-2.346,0.473-3.057,1.421c-0.711,0.993-1.067,2.345-1.067,4.051
		c0,1.988,0.332,3.436,0.996,4.335c0.711,0.994,1.706,1.492,2.985,1.492c1.326,0,2.346-0.498,3.056-1.492
		C-489.838,41.11-489.483,39.663-489.483,37.769"/>
	<path clip-path="url(#SVGID_15_)" fill="#3A73BA" d="M-482.984,22.914h2.559c0.663,0,1.232,0.24,1.706,0.713
		c0.472,0.473,0.711,1.042,0.711,1.705v1.492h-4.976V22.914z M-482.984,28.458h2.559c0.663,0,1.232,0.238,1.706,0.711
		c0.472,0.475,0.711,1.042,0.711,1.707v16.487h-4.976V28.458z"/>
	<path clip-path="url(#SVGID_15_)" fill="#3A73BA" d="M-473.368,45.659c-0.993-0.854-1.704-2.002-2.131-3.448
		c-0.427-1.443-0.639-2.949-0.639-4.512c0-1.279,0.176-2.56,0.532-3.837c0.356-1.28,0.911-2.346,1.671-3.2
		c1.232-1.421,2.817-2.263,4.762-2.523c1.941-0.26,3.696-0.105,5.259,0.462c1.8,0.712,3.127,1.944,3.981,3.697
		c0.804,1.564,1.208,3.387,1.208,5.472c0,1.517-0.168,2.819-0.499,3.908c-0.331,1.091-0.759,2.015-1.279,2.772
		c-1.138,1.563-2.582,2.536-4.334,2.913c-1.565,0.426-3.141,0.463-4.727,0.107C-471.152,47.115-472.42,46.511-473.368,45.659
		 M-469.954,33.148c-0.997,1.09-1.448,2.714-1.352,4.87c0.094,2.155,0.498,3.659,1.208,4.514c0.286,0.378,0.784,0.699,1.493,0.958
		c0.711,0.263,1.431,0.283,2.169,0.072c0.734-0.214,1.385-0.747,1.953-1.601c0.569-0.852,0.875-2.226,0.926-4.122
		c0-1.707-0.274-2.985-0.82-3.838c-0.546-0.854-1.173-1.398-1.884-1.635c-0.709-0.237-1.421-0.249-2.13-0.035
		C-469.103,32.544-469.623,32.817-469.954,33.148"/>
	<path clip-path="url(#SVGID_15_)" fill="#072020" d="M-449.229,47.363c-1.563,0.096-3.257,0.072-5.081-0.07
		c-1.825-0.144-2.735-1.303-2.735-3.482V22.914h2.557c0.617,0,1.161,0.24,1.637,0.713c0.473,0.472,0.71,1.042,0.71,1.705v3.197
		h2.912v0.994c0,0.713-0.236,1.293-0.709,1.743c-0.474,0.451-1.043,0.675-1.706,0.675h-0.497v10.518c0,0.808,0.473,1.209,1.42,1.209
		h1.492V47.363z"/>
	<path clip-path="url(#SVGID_15_)" fill="#072020" d="M-434.743,41.536h3.553c-0.521,1.988-1.518,3.508-2.984,4.548
		c-1.469,1.092-3.318,1.638-5.545,1.638c-2.7,0-4.81-0.877-6.324-2.632c-1.518-1.707-2.276-4.146-2.276-7.32
		c0-3.032,0.734-5.402,2.203-7.108c1.516-1.752,3.625-2.628,6.326-2.628c2.843,0,5.047,0.851,6.609,2.558
		c1.517,1.754,2.275,4.193,2.275,7.32v0.498v0.283c0,0.239-0.024,0.404-0.072,0.498h-12.295c0.048,1.469,0.403,2.56,1.067,3.269
		c0.615,0.762,1.538,1.138,2.772,1.138c0.805,0,1.493-0.165,2.061-0.498c0.142-0.046,0.272-0.127,0.39-0.248
		c0.118-0.116,0.249-0.249,0.391-0.392c0.047-0.142,0.225-0.33,0.534-0.567C-435.75,41.655-435.313,41.536-434.743,41.536
		 M-443.273,35.992h7.25c-0.095-1.28-0.426-2.226-0.995-2.844c-0.616-0.662-1.492-0.994-2.63-0.994
		c-1.042,0-1.896,0.332-2.558,0.994C-442.87,33.813-443.225,34.761-443.273,35.992"/>
	<path clip-path="url(#SVGID_15_)" fill="#072020" d="M-415.57,41.536h3.553c-0.521,1.988-1.517,3.508-2.984,4.548
		c-1.469,1.091-3.318,1.637-5.545,1.637c-2.699,0-4.81-0.877-6.324-2.631c-1.518-1.707-2.276-4.146-2.276-7.321
		c0-3.032,0.735-5.402,2.203-7.108c1.516-1.752,3.624-2.628,6.326-2.628c2.843,0,5.047,0.851,6.61,2.558
		c0.853,1.042,1.469,2.252,1.849,3.625h-4.976c-0.238-0.473-0.474-0.827-0.71-1.068c-0.616-0.662-1.494-0.994-2.63-0.994
		c-1.042,0-1.897,0.332-2.559,0.994c-0.852,0.95-1.28,2.512-1.28,4.693c0,2.179,0.428,3.719,1.28,4.618
		c0.615,0.761,1.539,1.139,2.773,1.139c0.803,0,1.492-0.165,2.059-0.499c0.143-0.047,0.274-0.128,0.391-0.248
		c0.119-0.116,0.249-0.249,0.391-0.392c0.095-0.142,0.285-0.33,0.57-0.567C-416.565,41.655-416.14,41.536-415.57,41.536"/>
	<path clip-path="url(#SVGID_15_)" fill="#072020" d="M-397.962,33.789c-0.71-0.995-1.682-1.491-2.914-1.491
		c-1.327,0-2.345,0.472-3.056,1.421c-0.71,0.947-1.064,2.251-1.064,3.908v9.736h-4.835V22.914h2.416c0.664,0,1.232,0.24,1.707,0.713
		c0.473,0.473,0.712,1.042,0.712,1.705v5.613c0.851-1.422,2.058-2.319,3.624-2.699c1.563-0.38,3.056-0.286,4.477,0.283
		c1.325,0.57,2.439,1.471,3.339,2.701c0.9,1.233,1.351,2.94,1.351,5.118v11.015h-4.76v-9.808c0-0.709-0.06-1.362-0.179-1.954
		C-397.264,35.01-397.535,34.406-397.962,33.789"/>
	<path clip-path="url(#SVGID_15_)" fill="#808080" d="M-495.737,50.009h1.354c0.371,0,0.689,0.137,0.955,0.417
		c0.265,0.278,0.398,0.59,0.398,0.936v7.762c0,1.886-0.544,3.16-1.632,3.823c-1.089,0.664-2.27,0.996-3.543,0.996
		c-0.691,0-1.368-0.114-2.031-0.34c-0.663-0.225-1.194-0.59-1.592-1.094c-0.77-0.983-1.155-2.323-1.155-4.022
		c0-1.67,0.385-3.011,1.155-4.02c0.796-1.036,1.818-1.554,3.065-1.554c0.663,0,1.247,0.133,1.752,0.397
		c0.531,0.318,0.956,0.731,1.274,1.235V50.009z M-500.276,58.367c0,1.063,0.199,1.873,0.598,2.43
		c0.397,0.559,0.967,0.836,1.712,0.836c0.716,0,1.273-0.277,1.672-0.836c0.371-0.557,0.557-1.367,0.557-2.43
		c0-0.955-0.2-1.711-0.598-2.268c-0.424-0.531-0.994-0.795-1.711-0.795c-0.691,0-1.235,0.276-1.632,0.835
		C-500.077,56.669-500.276,57.412-500.276,58.367"/>
	<path clip-path="url(#SVGID_15_)" fill="#808080" d="M-484.158,60.479h1.99c-0.292,1.114-0.85,1.964-1.672,2.547
		c-0.823,0.611-1.858,0.917-3.106,0.917c-1.512,0-2.694-0.492-3.542-1.475c-0.85-0.955-1.275-2.322-1.275-4.102
		c0-1.697,0.412-3.024,1.235-3.981c0.849-0.979,2.03-1.472,3.543-1.472c1.592,0,2.827,0.479,3.702,1.435
		c0.85,0.98,1.274,2.348,1.274,4.101v0.278v0.158c0,0.135-0.013,0.226-0.04,0.278h-6.887c0.026,0.823,0.226,1.436,0.598,1.832
		c0.344,0.426,0.861,0.637,1.552,0.637c0.452,0,0.836-0.091,1.154-0.277c0.08-0.027,0.153-0.073,0.219-0.141
		c0.067-0.065,0.14-0.14,0.219-0.219c0.027-0.079,0.126-0.185,0.299-0.319C-484.723,60.546-484.477,60.479-484.158,60.479
		 M-488.936,57.373h4.061c-0.054-0.717-0.239-1.247-0.557-1.593c-0.346-0.371-0.837-0.557-1.473-0.557
		c-0.585,0-1.063,0.186-1.433,0.557C-488.71,56.152-488.91,56.685-488.936,57.373"/>
	<path clip-path="url(#SVGID_15_)" fill="#808080" d="M-475.311,63.743h-2.826l-3.703-10.589h2.946l2.109,7.445l1.872-6.49
		c0.212-0.637,0.637-0.955,1.274-0.955h2.071L-475.311,63.743z"/>
	<path clip-path="url(#SVGID_15_)" fill="#808080" d="M-463.564,60.479h1.991c-0.292,1.114-0.85,1.964-1.672,2.547
		c-0.823,0.611-1.859,0.917-3.105,0.917c-1.513,0-2.694-0.492-3.542-1.475c-0.85-0.955-1.276-2.322-1.276-4.102
		c0-1.697,0.413-3.024,1.236-3.981c0.848-0.979,2.03-1.472,3.542-1.472c1.592,0,2.826,0.479,3.703,1.435
		c0.849,0.98,1.273,2.348,1.273,4.101v0.278v0.158c0,0.135-0.012,0.226-0.04,0.278h-6.886c0.024,0.823,0.225,1.436,0.597,1.832
		c0.345,0.426,0.862,0.637,1.552,0.637c0.451,0,0.837-0.091,1.156-0.277c0.078-0.027,0.151-0.073,0.218-0.141
		c0.065-0.065,0.14-0.14,0.22-0.219c0.025-0.079,0.124-0.185,0.298-0.319C-464.128,60.546-463.882,60.479-463.564,60.479
		 M-468.34,57.373h4.061c-0.054-0.717-0.24-1.247-0.558-1.593c-0.346-0.371-0.837-0.557-1.474-0.557
		c-0.582,0-1.061,0.186-1.432,0.557C-468.115,56.152-468.316,56.685-468.34,57.373"/>
	<path clip-path="url(#SVGID_15_)" fill="#808080" d="M-460.347,50.047h1.432c0.372,0,0.691,0.128,0.955,0.378
		c0.267,0.254,0.399,0.564,0.399,0.937v12.381h-2.786V50.047z"/>
	<path clip-path="url(#SVGID_15_)" fill="#808080" d="M-454.652,62.786c-0.558-0.476-0.956-1.119-1.194-1.928
		c-0.24-0.811-0.359-1.654-0.359-2.529c0-0.717,0.1-1.435,0.299-2.148c0.199-0.72,0.511-1.314,0.936-1.795
		c0.688-0.793,1.577-1.267,2.667-1.411c1.087-0.145,2.071-0.061,2.945,0.258c1.008,0.397,1.752,1.09,2.23,2.071
		c0.45,0.877,0.676,1.897,0.676,3.063c0,0.852-0.093,1.581-0.277,2.19c-0.186,0.612-0.425,1.128-0.717,1.555
		c-0.636,0.874-1.447,1.418-2.428,1.631c-0.877,0.237-1.76,0.258-2.648,0.06C-453.411,63.603-454.122,63.264-454.652,62.786
		 M-452.741,55.78c-0.557,0.61-0.81,1.521-0.757,2.728c0.054,1.208,0.279,2.05,0.677,2.528c0.16,0.211,0.438,0.393,0.836,0.536
		c0.399,0.147,0.802,0.161,1.215,0.04c0.41-0.118,0.776-0.418,1.094-0.895c0.318-0.478,0.492-1.247,0.518-2.31
		c0-0.954-0.152-1.672-0.458-2.148c-0.306-0.479-0.657-0.783-1.055-0.916s-0.796-0.141-1.195-0.021
		C-452.264,55.442-452.555,55.594-452.741,55.78"/>
	<path clip-path="url(#SVGID_15_)" fill="#808080" d="M-442.536,66.292c0,0.371-0.133,0.688-0.398,0.954
		c-0.265,0.265-0.584,0.397-0.956,0.397h-1.353V57.73c0-1.856,0.544-3.123,1.632-3.802c1.088-0.677,2.27-1.015,3.543-1.015
		c0.664,0,1.334,0.126,2.011,0.379c0.677,0.252,1.214,0.617,1.612,1.093c0.797,1.039,1.195,2.364,1.195,3.981
		c0,1.674-0.398,3.025-1.195,4.063c-0.796,1.008-1.818,1.513-3.064,1.513c-0.666,0-1.249-0.121-1.754-0.359
		c-0.53-0.266-0.955-0.678-1.273-1.233V66.292z M-437.997,58.487c0-1.033-0.2-1.831-0.597-2.388
		c-0.399-0.559-0.969-0.837-1.713-0.837c-0.716,0-1.273,0.278-1.672,0.837c-0.372,0.505-0.557,1.301-0.557,2.388
		c0,1.009,0.199,1.765,0.598,2.27c0.397,0.559,0.968,0.837,1.711,0.837c0.691,0,1.234-0.278,1.633-0.837
		C-438.197,60.199-437.997,59.444-437.997,58.487"/>
	<path clip-path="url(#SVGID_15_)" fill="#808080" d="M-424.679,63.743h-2.747v-6.212v-0.558c0-0.637-0.194-1.1-0.578-1.393
		c-0.385-0.29-0.816-0.438-1.295-0.438c-0.476,0-0.901,0.148-1.273,0.438c-0.372,0.293-0.558,0.756-0.558,1.393v6.77h-2.786v-6.212
		c0-1.804,0.471-3.011,1.414-3.621c0.941-0.61,1.983-0.942,3.125-0.996c0.61,0,1.207,0.066,1.792,0.199
		c0.583,0.133,1.114,0.4,1.592,0.797c0.398-0.345,0.868-0.591,1.414-0.736c0.543-0.146,1.107-0.232,1.691-0.26
		c1.167,0,2.243,0.307,3.225,0.917c0.981,0.608,1.473,1.845,1.473,3.7v6.212h-1.394c-0.398,0-0.723-0.126-0.976-0.378
		c-0.252-0.254-0.378-0.579-0.378-0.976v-5.416c0-0.637-0.192-1.1-0.577-1.393c-0.385-0.29-0.816-0.438-1.293-0.438
		c-0.478,0-0.91,0.148-1.294,0.438c-0.385,0.293-0.577,0.756-0.577,1.393v0.558V63.743z"/>
	<path clip-path="url(#SVGID_15_)" fill="#808080" d="M-409.214,60.479h1.991c-0.292,1.114-0.85,1.964-1.673,2.547
		c-0.823,0.611-1.858,0.917-3.104,0.917c-1.513,0-2.694-0.492-3.543-1.475c-0.849-0.955-1.275-2.322-1.275-4.102
		c0-1.697,0.411-3.024,1.235-3.981c0.848-0.979,2.03-1.472,3.543-1.472c1.592,0,2.826,0.479,3.702,1.435
		c0.849,0.98,1.273,2.348,1.273,4.101v0.278v0.158c0,0.135-0.012,0.226-0.039,0.278h-6.887c0.027,0.823,0.226,1.436,0.597,1.832
		c0.346,0.426,0.862,0.637,1.553,0.637c0.451,0,0.836-0.091,1.155-0.277c0.079-0.027,0.151-0.073,0.218-0.141
		c0.065-0.065,0.14-0.14,0.22-0.219c0.025-0.079,0.124-0.185,0.299-0.319C-409.778,60.546-409.533,60.479-409.214,60.479
		 M-413.991,57.373h4.062c-0.054-0.717-0.24-1.247-0.558-1.593c-0.346-0.371-0.837-0.557-1.475-0.557
		c-0.582,0-1.059,0.186-1.432,0.557C-413.765,56.152-413.964,56.685-413.991,57.373"/>
	<path clip-path="url(#SVGID_15_)" fill="#808080" d="M-396.448,63.743h-1.394c-0.398,0-0.724-0.126-0.974-0.378
		c-0.254-0.254-0.379-0.579-0.379-0.976v-5.416c0-0.637-0.194-1.1-0.577-1.393c-0.385-0.29-0.818-0.438-1.295-0.438
		c-0.478,0-0.901,0.148-1.273,0.438c-0.372,0.293-0.558,0.756-0.558,1.393v6.77h-2.786v-6.212c0-1.804,0.47-3.011,1.413-3.621
		c0.941-0.61,1.983-0.942,3.125-0.996c1.169,0,2.242,0.307,3.225,0.917c0.982,0.608,1.473,1.845,1.473,3.7V63.743z"/>
	<path clip-path="url(#SVGID_15_)" fill="#808080" d="M-390.674,64.046c-0.876,0.05-1.825,0.038-2.847-0.04
		c-1.022-0.08-1.533-0.73-1.533-1.952V50.35h1.433c0.345,0,0.651,0.134,0.917,0.398c0.265,0.265,0.397,0.583,0.397,0.955v1.792
		h1.633v0.557c0,0.398-0.134,0.726-0.399,0.977c-0.264,0.252-0.583,0.379-0.955,0.379h-0.279v5.891c0,0.45,0.264,0.677,0.796,0.677
		h0.837V64.046z"/>
</g>
</svg>
