<?xml version="1.0" encoding="utf-8"?>
<!-- Generator: Adobe Illustrator 16.0.0, SVG Export Plug-In . SVG Version: 6.00 Build 0)  -->
<!DOCTYPE svg PUBLIC "-//W3C//DTD SVG 1.1//EN" "http://www.w3.org/Graphics/SVG/1.1/DTD/svg11.dtd">
<svg version="1.1" id="Layer_1" xmlns="http://www.w3.org/2000/svg" xmlns:xlink="http://www.w3.org/1999/xlink" x="0px" y="0px"
	 width="216.938px" height="72.5px" viewBox="0 0 216.938 72.5" enable-background="new 0 0 216.938 72.5" xml:space="preserve">
<g>
	<defs>
		<rect id="SVGID_1_" x="-519.5" y="-12.14" width="734.099" height="96.14"/>
	</defs>
	<clipPath id="SVGID_2_">
		<use xlink:href="#SVGID_1_"  overflow="visible"/>
	</clipPath>
	<path clip-path="url(#SVGID_2_)" fill="#363F45" d="M-221.201,22.414c-3.377,0-6.451,1.355-8.753,3.538
		c-0.001,0.002-0.003,0.003-0.006,0.004c-0.005,0.007-0.01,0.012-0.015,0.018c-0.469,0.447-0.906,0.929-1.306,1.441
		c-4.968,5.596-5.774,7.912-9.326,11.493c-0.166,0.167-0.338,0.338-0.518,0.511c-0.191,0.187-0.388,0.374-0.596,0.567
		c-0.909,0.768-2.404,1.632-4.533,1.632c-3.819,0-5.884-3.648-5.884-6.299c0-2.511,1.686-6.022,5.437-6.022
		c3.785,0,6.126,2.995,6.229,3.132l-0.035-0.035l1.135,1.321l4.406-5.381c-0.172-0.241-4.439-5.92-11.735-5.92
		c-3.613,0-6.883,1.515-9.188,4.268c-1.997,2.375-3.132,5.541-3.132,8.637c0,3.132,1.204,6.333,3.303,8.776
		c2.444,2.822,5.817,4.405,9.464,4.405c4.866,0,8.36-2.389,10.282-4.51c0.007-0.008,0.015-0.015,0.023-0.023
		c4.653-4.985,8.125-9.844,8.131-9.853l1.561-1.889l0.001,0.001c1.076-1.734,2.945-2.93,5.055-2.93c3.338,0,6.057,2.926,6.057,6.263
		c0,3.339-2.719,6.058-6.057,6.058c-3.023,0-5.551-2.28-5.958-5.225l-4.966,6.042c2.285,3.638,6.323,6.065,10.924,6.065
		c7.158,0,12.94-5.815,12.94-12.941C-208.261,28.436-214.043,22.414-221.201,22.414"/>
</g>
<text transform="matrix(1 0 0 1 -205.3003 46.0273)" fill="#47A5A5" font-family="'ProximaNova-Black'" font-size="32.3927">NNECT</text>
<g>
	<defs>
		<rect id="SVGID_3_" x="-519.5" y="-12.14" width="734.099" height="96.14"/>
	</defs>
	<clipPath id="SVGID_4_">
		<use xlink:href="#SVGID_3_"  overflow="visible"/>
	</clipPath>
	<path clip-path="url(#SVGID_4_)" fill="#458C06" d="M-410.849,14.754c0.366-0.258,0.712-0.549,1.035-0.872
		c1.479-1.478,2.293-3.443,2.293-5.532c0-2.09-0.814-4.055-2.292-5.533c-1.479-1.479-3.444-2.293-5.534-2.292
		c-1.716-0.001-3.347,0.546-4.72,1.582c-0.276,0.21-0.538,0.436-0.816,0.707l-9.926,9.926l-1.591-1.59l-2.012-2.012l-9.912-9.912
		c-0.174-0.18-0.329-0.358-0.466-0.538c-0.657-0.87-1.004-1.908-1.005-3.002c0-1.329,0.518-2.579,1.46-3.521
		c0.941-0.94,2.191-1.459,3.52-1.459c2.746,0,4.98,2.235,4.981,4.98h2.845c0-1.329,0.518-2.579,1.459-3.52
		c0.941-0.941,2.191-1.46,3.521-1.46c1.329,0,2.579,0.519,3.52,1.459c0.941,0.942,1.459,2.192,1.459,3.522
		c0,1.093-0.347,2.131-1.001,2.997c-0.138,0.181-0.29,0.356-0.462,0.534l-8.283,8.283l2.012,2.013l8.298-8.298l0.007-0.008
		c0.256-0.262,0.482-0.525,0.696-0.805c1.033-1.369,1.579-2.999,1.579-4.716c0-2.09-0.814-4.055-2.292-5.533
		c-1.479-1.479-3.444-2.293-5.534-2.292c-2.089-0.001-4.053,0.813-5.532,2.292c-0.323,0.323-0.614,0.668-0.872,1.035
		c-1.418-2.012-3.759-3.328-6.401-3.328c-2.089,0-4.054,0.814-5.533,2.293c-1.479,1.478-2.293,3.443-2.292,5.532
		c0,1.719,0.546,3.349,1.583,4.722c0.211,0.277,0.437,0.538,0.706,0.815l9.926,9.927l-0.795,0.795h0.001l-12.555,12.554
		l-0.165,0.166c-0.181,0.175-0.358,0.328-0.537,0.465c-0.871,0.657-1.909,1.005-3.002,1.004c-1.329,0-2.58-0.518-3.521-1.459
		c-0.94-0.94-1.458-2.191-1.459-3.521c0-1.329,0.519-2.579,1.46-3.52c0.94-0.94,2.191-1.459,3.52-1.459v-2.846
		c-2.746,0-4.98-2.234-4.98-4.979c0-1.33,0.519-2.58,1.459-3.521c0.941-0.941,2.192-1.46,3.521-1.46c1.094,0,2.132,0.348,2.996,1
		c0.186,0.143,0.363,0.296,0.528,0.456l8.48,8.48l2.012-2.013l-8.494-8.494c-0.262-0.254-0.524-0.479-0.805-0.695
		c-1.368-1.032-2.999-1.579-4.717-1.579c-2.089,0-4.054,0.814-5.533,2.293c-1.478,1.478-2.293,3.443-2.293,5.533
		c0.001,2.641,1.317,4.982,3.329,6.4c-0.367,0.258-0.713,0.549-1.036,0.872c-1.478,1.479-2.292,3.444-2.292,5.532
		c-0.001,2.09,0.814,4.055,2.292,5.534c1.479,1.478,3.444,2.293,5.533,2.292c1.717,0.001,3.348-0.546,4.721-1.582
		c0.276-0.21,0.538-0.437,0.816-0.707l9.926-9.927l1.591,1.591l2.012,2.011l9.912,9.913c0.174,0.179,0.328,0.357,0.466,0.538
		c0.657,0.869,1.004,1.907,1.004,3.001c0,1.329-0.518,2.58-1.459,3.521c-0.941,0.939-2.191,1.459-3.521,1.459
		c-2.745,0-4.98-2.234-4.98-4.98h-2.845c0,1.329-0.518,2.58-1.459,3.52c-0.941,0.94-2.192,1.46-3.521,1.459
		c-1.329,0-2.579-0.519-3.52-1.458c-0.941-0.941-1.459-2.192-1.46-3.521c0-1.093,0.348-2.131,1.002-2.997
		c0.14-0.184,0.293-0.361,0.454-0.528l8.01-8.01l-2.012-2.012l-8.024,8.025c-0.256,0.264-0.484,0.526-0.696,0.806
		c-1.033,1.368-1.58,2.999-1.579,4.716c-0.001,2.089,0.814,4.054,2.292,5.533c1.479,1.479,3.444,2.293,5.533,2.292
		c2.09,0,4.054-0.813,5.533-2.292c0.323-0.323,0.614-0.669,0.872-1.035c1.418,2.011,3.758,3.327,6.401,3.328
		c2.089,0,4.054-0.814,5.533-2.293c1.478-1.479,2.292-3.444,2.292-5.533c0-1.718-0.546-3.349-1.583-4.722
		c-0.211-0.276-0.437-0.538-0.706-0.815l-9.927-9.926l0.795-0.795l12.72-12.721c0.18-0.175,0.358-0.328,0.537-0.465
		c0.871-0.657,1.908-1.005,3.002-1.005c1.329,0,2.58,0.519,3.52,1.46c0.941,0.941,1.459,2.191,1.459,3.521
		c0,1.329-0.518,2.579-1.459,3.52c-0.941,0.941-2.191,1.459-3.52,1.459v2.846c2.746,0,4.979,2.234,4.979,4.979
		c0,1.331-0.518,2.581-1.459,3.521c-0.941,0.941-2.191,1.46-3.52,1.46c-1.094-0.001-2.132-0.348-2.996-1.001
		c-0.186-0.142-0.364-0.296-0.528-0.455l-8.161-8.16l-2.012,2.011l8.175,8.176c0.262,0.254,0.523,0.48,0.805,0.695
		c1.368,1.033,2.999,1.579,4.717,1.579c2.089,0.001,4.054-0.814,5.533-2.292c1.478-1.479,2.293-3.444,2.292-5.534
		C-407.521,18.513-408.837,16.172-410.849,14.754 M-434.412,16.342l-1.59-1.59l1.59-1.591l1.59,1.591L-434.412,16.342z"/>
	<g clip-path="url(#SVGID_4_)">
		<text transform="matrix(1 0 0 1 -519.5 73.1787)" fill="#458C06" font-family="'Montserrat-Bold'" font-size="23.9402">FEED A CHILD</text>
	</g>
</g>
<g>
	<defs>
		<path id="SVGID_5_" d="M21.232,45.946c0-8.44,6.828-15.26,15.26-15.26h0.339c4.79,0.08,9.08,2.41,11.79,5.98
			c-1.23,1.52-3.139,2.5-5.22,2.5c-0.931,0-1.819-0.21-2.62-0.549c-0.299-0.17-0.601-0.341-0.94-0.471
			c-1.01-0.471-2.16-0.682-3.349-0.682c-4.701,0-8.481,3.781-8.481,8.481c0,4.67,3.78,8.479,8.481,8.479
			c1.188,0,2.339-0.25,3.349-0.72c0.34-0.13,0.642-0.3,0.94-0.46c0.801-0.34,1.689-0.509,2.62-0.509c2.081,0,3.989,0.929,5.22,2.459
			c-2.71,3.56-7,5.89-11.79,5.97c-0.119,0.05-0.25,0.05-0.339,0.05C28.061,61.216,21.232,54.346,21.232,45.946 M31.681,21.256
			c-0.04,0-0.079,0.01-0.12,0.02c-0.42,0.09-0.84,0.18-1.25,0.29c-2,0.51-3.908,1.26-5.68,2.23c-0.46,0.25-0.91,0.52-1.349,0.8
			c-0.021,0-0.031,0.01-0.041,0.03c-3.32,2.09-6.089,4.96-8.08,8.339c0,0-0.009,0-0.009,0.01c-0.29,0.481-0.552,0.981-0.802,1.481
			c-0.67,1.33-1.219,2.72-1.618,4.17c-0.271,0.88-0.472,1.79-0.62,2.709c-0.012,0.01-0.012,0.01-0.012,0.021
			c-0.219,1.329-0.34,2.698-0.34,4.1c0,1.22,0.09,2.42,0.261,3.6c1.739,11.909,12.011,21.062,24.409,21.062
			c13.621,0,24.66-11.041,24.66-24.661c0-12.61-9.46-23-21.669-24.47c-0.98-0.13-1.979-0.19-2.991-0.19
			C34.801,20.796,33.221,20.956,31.681,21.256"/>
	</defs>
	<clipPath id="SVGID_6_">
		<use xlink:href="#SVGID_5_"  overflow="visible"/>
	</clipPath>
	
		<radialGradient id="SVGID_7_" cx="-519.5" cy="84" r="1" gradientTransform="matrix(42.8568 0 0 -42.8568 22284.1016 3629.9753)" gradientUnits="userSpaceOnUse">
		<stop  offset="0" style="stop-color:#ED2079"/>
		<stop  offset="0.5374" style="stop-color:#ED2079"/>
		<stop  offset="1" style="stop-color:#6B2063"/>
	</radialGradient>
	<rect x="11.761" y="20.796" clip-path="url(#SVGID_6_)" fill="url(#SVGID_7_)" width="49.33" height="49.321"/>
</g>
<g>
	<defs>
		<rect id="SVGID_8_" x="-519.5" y="-12.14" width="734.099" height="96.14"/>
	</defs>
	<clipPath id="SVGID_9_">
		<use xlink:href="#SVGID_8_"  overflow="visible"/>
	</clipPath>
	<path clip-path="url(#SVGID_9_)" fill="#ED2079" d="M39.436,20.805c0,2.149-1.741,3.893-3.893,3.893
		c-2.149,0-3.892-1.744-3.892-3.893s1.742-3.893,3.892-3.893C37.694,16.912,39.436,18.656,39.436,20.805"/>
	<path clip-path="url(#SVGID_9_)" fill="#ED2079" d="M24.752,28.525c0,3.221-2.61,5.832-5.832,5.832s-5.831-2.611-5.831-5.832
		s2.609-5.832,5.831-5.832S24.752,25.304,24.752,28.525"/>
	<path clip-path="url(#SVGID_9_)" fill="#FFFFFF" d="M16.39,36.287c0,2.826-2.291,5.118-5.118,5.118s-5.118-2.292-5.118-5.118
		c0-2.827,2.291-5.118,5.118-5.118S16.39,33.46,16.39,36.287"/>
	<path clip-path="url(#SVGID_9_)" fill="#FFFFFF" d="M31.74,22.528c0,2.476-2.008,4.483-4.482,4.483
		c-2.478,0-4.485-2.007-4.485-4.483c0-2.477,2.008-4.484,4.485-4.484C29.732,18.044,31.74,20.051,31.74,22.528"/>
	<path clip-path="url(#SVGID_9_)" fill="#ED2079" d="M14.644,35.759c0,1.716-1.392,3.106-3.106,3.106S8.43,37.475,8.43,35.759
		s1.393-3.106,3.107-3.106S14.644,34.043,14.644,35.759"/>
	<path clip-path="url(#SVGID_9_)" fill="#ED2079" d="M14.947,20.694c0,1.231-1,2.23-2.23,2.23c-1.233,0-2.232-0.999-2.232-2.23
		c0-1.232,0.999-2.231,2.232-2.231C13.947,18.463,14.947,19.462,14.947,20.694"/>
	<path clip-path="url(#SVGID_9_)" fill="#ED2079" d="M5.646,31.96c0,1.232-1,2.23-2.23,2.23c-1.233,0-2.232-0.998-2.232-2.23
		s0.999-2.231,2.232-2.231C4.646,29.729,5.646,30.728,5.646,31.96"/>
	<path clip-path="url(#SVGID_9_)" fill="#ED2079" d="M36.044,12.419c0,1.232-0.999,2.231-2.23,2.231
		c-1.233,0-2.231-0.999-2.231-2.231c0-1.231,0.998-2.23,2.231-2.23C35.045,10.189,36.044,11.188,36.044,12.419"/>
	<path clip-path="url(#SVGID_9_)" fill="#ED2079" d="M14.125,3.129c0,0.765-0.619,1.384-1.384,1.384
		c-0.763,0-1.383-0.619-1.383-1.384c0-0.764,0.62-1.383,1.383-1.383C13.506,1.746,14.125,2.365,14.125,3.129"/>
	<path clip-path="url(#SVGID_9_)" fill="#ED2079" d="M25.426,12.45c0,0.713-0.577,1.29-1.291,1.29c-0.712,0-1.289-0.577-1.289-1.29
		c0-0.712,0.577-1.29,1.289-1.29C24.849,11.16,25.426,11.738,25.426,12.45"/>
	<path clip-path="url(#SVGID_9_)" fill="#ED2079" d="M6,22.164c0,0.712-0.578,1.29-1.291,1.29s-1.289-0.578-1.289-1.29
		c0-0.713,0.576-1.291,1.289-1.291S6,21.451,6,22.164"/>
	<path clip-path="url(#SVGID_9_)" fill="#ED2079" d="M9.666,13.739c0,0.712-0.576,1.29-1.289,1.29c-0.714,0-1.29-0.578-1.29-1.29
		c0-0.713,0.576-1.29,1.29-1.29C9.09,12.449,9.666,13.026,9.666,13.739"/>
	<path clip-path="url(#SVGID_9_)" fill="#ED2079" d="M28.498,6.702c0,0.712-0.577,1.29-1.29,1.29s-1.29-0.578-1.29-1.29
		c0-0.713,0.577-1.291,1.29-1.291S28.498,5.989,28.498,6.702"/>
	<path clip-path="url(#SVGID_9_)" fill="#ED2079" d="M30.363,22.135c0,1.716-1.391,3.106-3.105,3.106
		c-1.716,0-3.107-1.39-3.107-3.106s1.392-3.106,3.107-3.106C28.973,19.029,30.363,20.419,30.363,22.135"/>
	<path clip-path="url(#SVGID_9_)" fill="#ED2079" d="M15.426,45.195c0,2.149-1.743,3.893-3.894,3.893
		c-2.149,0-3.892-1.743-3.892-3.893c0-2.15,1.742-3.893,3.892-3.893C13.683,41.303,15.426,43.045,15.426,45.195"/>
	<path clip-path="url(#SVGID_9_)" fill="#010101" d="M78.277,36.529v1.858c-0.57-0.544-1.102-0.938-1.594-1.18
		c-0.805-0.399-1.628-0.6-2.467-0.6c-0.957,0-1.857,0.255-2.703,0.767c-0.918,0.544-1.618,1.298-2.103,2.261
		c-0.406,0.799-0.61,1.654-0.61,2.565c0,1.664,0.617,3.027,1.848,4.089c1.075,0.931,2.269,1.396,3.578,1.396
		c0.747,0,1.446-0.143,2.1-0.428c0.651-0.285,1.303-0.731,1.951-1.342v1.868c-1.271,0.871-2.618,1.309-4.04,1.309
		c-1.128,0-2.198-0.27-3.215-0.808c-1.291-0.682-2.273-1.657-2.948-2.929c-0.525-0.996-0.786-2.055-0.786-3.175
		c0-1.146,0.277-2.238,0.836-3.273c0.634-1.186,1.529-2.109,2.682-2.771c1.081-0.624,2.251-0.935,3.51-0.935
		c0.74,0,1.417,0.103,2.029,0.31C76.958,35.718,77.602,36.058,78.277,36.529"/>
	<path clip-path="url(#SVGID_9_)" fill="#010101" d="M94.604,42.704l4.252,6.016l-1.828-0.004l-4.035-5.897l-0.384-0.001
		l-0.014,5.888l-1.504-0.003l0.032-13.417l2.172,0.005c0.766,0.002,1.396,0.06,1.891,0.172c0.494,0.112,0.936,0.3,1.322,0.563
		c0.483,0.331,0.852,0.77,1.107,1.32c0.247,0.537,0.37,1.111,0.368,1.721c-0.002,1.017-0.31,1.854-0.925,2.515
		C96.445,42.24,95.628,42.615,94.604,42.704 M92.613,41.501l0.934,0.002c0.911,0.002,1.604-0.177,2.085-0.536
		c0.584-0.444,0.877-1.079,0.878-1.905c0.003-0.878-0.32-1.523-0.967-1.938c-0.465-0.289-1.141-0.434-2.025-0.437l-0.894-0.002
		L92.613,41.501z"/>
	<polygon clip-path="url(#SVGID_9_)" fill="#010101" points="118.248,36.744 112.804,36.731 112.795,40.712 118.093,40.724 
		118.09,42.12 112.79,42.107 112.778,47.357 118.225,47.369 118.222,48.765 111.271,48.749 111.304,35.332 118.252,35.348 	"/>
	<path clip-path="url(#SVGID_9_)" fill="#010101" d="M138.43,45.018l-5.731-0.013l-1.63,3.79l-1.632-0.004l6.216-14.041
		l5.992,14.069l-1.643-0.004L138.43,45.018z M137.842,43.621l-2.229-5.382l-2.302,5.371L137.842,43.621z"/>
	<polygon clip-path="url(#SVGID_9_)" fill="#010101" points="156.022,36.832 155.995,48.853 154.491,48.85 154.519,36.828 
		151.275,36.821 151.279,35.425 159.29,35.443 159.287,36.84 	"/>
	
		<rect x="165.397" y="41.43" transform="matrix(0.0023 -1 1 0.0023 129.5356 214.1925)" clip-path="url(#SVGID_9_)" fill="#010101" width="13.417" height="1.504"/>
	<polygon clip-path="url(#SVGID_9_)" fill="#010101" points="186.467,35.507 190.257,45.748 194.085,35.525 195.717,35.528 
		190.229,49.729 184.826,35.503 	"/>
	<polygon clip-path="url(#SVGID_9_)" fill="#010101" points="214.596,36.969 209.151,36.956 209.142,40.937 214.439,40.948 
		214.437,42.345 209.139,42.332 209.125,47.581 214.572,47.594 214.568,48.989 207.618,48.974 207.65,35.557 214.6,35.573 	"/>
	<path clip-path="url(#SVGID_9_)" fill="#010101" d="M114.668,59.41l-1.794-0.004l-0.51,1.187l-0.512-0.002l1.944-4.395l1.876,4.404
		l-0.513-0.002L114.668,59.41z M114.484,58.973l-0.698-1.684l-0.722,1.681L114.484,58.973z"/>
	<path clip-path="url(#SVGID_9_)" fill="#010101" d="M125.801,58.517l1.75,0.004c0,0.32-0.021,0.566-0.061,0.738
		c-0.091,0.418-0.325,0.764-0.701,1.038c-0.367,0.27-0.779,0.404-1.233,0.403c-0.371-0.001-0.723-0.096-1.052-0.283
		c-0.371-0.212-0.654-0.506-0.853-0.881c-0.165-0.314-0.247-0.65-0.247-1.007c0-0.416,0.112-0.8,0.332-1.153
		c0.208-0.331,0.486-0.588,0.835-0.771c0.323-0.168,0.667-0.253,1.035-0.252c0.482,0.001,0.912,0.145,1.284,0.431
		c0.139,0.106,0.3,0.27,0.48,0.487l-0.344,0.313c-0.145-0.188-0.276-0.332-0.396-0.429c-0.299-0.24-0.642-0.361-1.025-0.362
		c-0.284-0.001-0.552,0.066-0.805,0.201c-0.294,0.156-0.521,0.375-0.688,0.66c-0.156,0.269-0.235,0.563-0.236,0.882
		c-0.001,0.499,0.18,0.915,0.539,1.25c0.34,0.315,0.723,0.473,1.147,0.474c0.373,0.001,0.709-0.12,1.009-0.364
		c0.152-0.126,0.265-0.263,0.339-0.409c0.075-0.146,0.119-0.323,0.134-0.53l-1.246-0.003L125.801,58.517z"/>
	<polygon clip-path="url(#SVGID_9_)" fill="#010101" points="138.15,56.89 136.447,56.886 136.443,58.132 138.102,58.136 
		138.1,58.572 136.443,58.568 136.438,60.211 138.143,60.215 138.142,60.652 135.967,60.647 135.977,56.448 138.152,56.452 	"/>
	<polygon clip-path="url(#SVGID_9_)" fill="#010101" points="146.563,60.672 146.574,56.297 149.838,59.732 149.846,56.48 
		150.317,56.481 150.306,60.871 147.042,57.437 147.034,60.673 	"/>
	<path clip-path="url(#SVGID_9_)" fill="#010101" d="M162.173,56.854l-0.002,0.581c-0.178-0.17-0.344-0.294-0.497-0.369
		c-0.252-0.126-0.51-0.189-0.771-0.191c-0.299,0-0.582,0.08-0.846,0.239c-0.287,0.17-0.509,0.404-0.66,0.706
		c-0.128,0.25-0.192,0.518-0.193,0.802c-0.001,0.521,0.191,0.949,0.575,1.282c0.335,0.291,0.709,0.438,1.119,0.439
		c0.233,0,0.453-0.044,0.657-0.133c0.203-0.089,0.407-0.228,0.611-0.419l-0.002,0.585c-0.397,0.271-0.82,0.407-1.264,0.406
		c-0.354-0.001-0.688-0.086-1.006-0.255c-0.404-0.214-0.71-0.521-0.921-0.919c-0.163-0.312-0.244-0.644-0.243-0.994
		c0.001-0.359,0.089-0.7,0.263-1.023c0.201-0.371,0.481-0.659,0.842-0.865c0.339-0.194,0.705-0.291,1.1-0.29
		c0.23,0.001,0.442,0.033,0.635,0.098C161.762,56.6,161.962,56.705,162.173,56.854"/>
	<polygon clip-path="url(#SVGID_9_)" fill="#010101" points="171.463,58.925 170.094,56.527 170.636,56.528 171.701,58.405 
		172.791,56.534 173.336,56.535 171.935,58.926 171.931,60.731 171.458,60.73 	"/>
</g>
</svg>
