<?xml version="1.0" encoding="utf-8"?>
<!-- Generator: Adobe Illustrator 16.0.0, SVG Export Plug-In . SVG Version: 6.00 Build 0)  -->
<!DOCTYPE svg PUBLIC "-//W3C//DTD SVG 1.1//EN" "http://www.w3.org/Graphics/SVG/1.1/DTD/svg11.dtd">
<svg version="1.1" id="Layer_1" xmlns="http://www.w3.org/2000/svg" xmlns:xlink="http://www.w3.org/1999/xlink" x="0px" y="0px"
	 width="196.46px" height="227.51px" viewBox="0 0 196.46 227.51" enable-background="new 0 0 196.46 227.51" xml:space="preserve">
<g>
	<defs>
		<rect id="SVGID_1_" width="196.46" height="227.51"/>
	</defs>
	<clipPath id="SVGID_2_">
		<use xlink:href="#SVGID_1_"  overflow="visible"/>
	</clipPath>
	<path clip-path="url(#SVGID_2_)" fill="#FFFFFF" d="M196.409,183.313h-0.778c-0.163,3.947-0.667,7.871-1.642,11.644
		c-0.977,3.767-2.503,7.361-4.611,10.551c-2.1,3.198-4.768,5.976-7.793,8.299c-0.745,0.594-1.558,1.108-2.329,1.666
		c-0.786,0.538-1.608,0.989-2.401,1.494c-0.801,0.495-1.727,0.952-2.583,1.43c-0.785,0.453-1.696,0.788-2.534,1.189
		c-6.933,2.958-14.706,3.493-22.266,2.714c-7.609-0.805-15.025-2.947-22.181-5.942c-6.977-2.965-13.66-6.898-19.539-11.708
		c-1.454-1.23-2.92-2.442-4.284-3.774c-1.422-1.265-2.722-2.664-4.051-4.027c-2.571-2.815-5.05-5.725-7.262-8.855
		c-1.158-1.521-2.173-3.156-3.253-4.739c-1.002-1.639-2.05-3.247-2.982-4.933l-1.419-2.517l-1.324-2.531
		c-0.894-1.636-1.749-3.504-2.621-5.267c-0.671-1.391-1.29-3.261-1.948-5.13c-0.662-1.896-1.361-3.871-2.275-5.89
		c-0.445-1.009-0.985-2.039-1.6-3.071c-0.33-0.521-0.666-1.041-1.058-1.562c-0.421-0.521-0.775-1.013-1.454-1.643l-0.465-0.435
		l-0.224-0.198l-0.146-0.115l-0.592-0.452c-0.133-0.093,0.192,0.13-0.315-0.224l-0.115-0.066l-0.226-0.133l-0.456-0.26
		c-0.312-0.167-0.598-0.353-0.935-0.494c-0.694-0.267-1.331-0.588-2.106-0.741c-0.377-0.087-0.748-0.178-1.132-0.244
		c-0.4-0.04-0.8-0.07-1.201-0.095c-1.609-0.028-3.338,0.253-4.843,1.072c-1.497,0.785-2.807,1.932-3.701,3.286
		c-0.87,1.346-1.502,2.834-1.719,4.302c-0.177,0.742-0.153,1.454-0.21,2.184c0.005,0.388,0.037,0.797,0.067,1.195l0.055,0.598
		l0.033,0.284l0.035,0.185l0.142,0.729l0.125,0.608l0.2,0.619c0.273,0.872,0.627,1.48,0.969,2.108c0.7,1.18,1.385,2.03,2.012,2.857
		c0.626,0.798,1.161,1.501,1.609,2.149c0.41,0.625,0.677,1.178,0.798,1.53c0.078,0.313,0.028,0.443,0.028,0.576
		c-0.011-0.014,0.002-0.025,0.036-0.019l0.03,0.01c-0.009,0.024-0.061,0.097-0.089,0.142l-0.202,0.314l-0.202,0.312l-0.018,0.026
		c-0.076,0.073-0.149,0.149-0.218,0.231c-0.149,0.233-0.295,0.238-0.404,0.376c-0.058,0.066-0.115,0.036-0.161,0.077
		c-0.046,0.032-0.089,0.08-0.148,0.066c-0.159,0.104-0.501,0.057-0.977-0.015c-1.004-0.219-2.445-0.983-3.823-2.014
		c-0.697-0.496-1.404-1.079-2.12-1.672c-0.711-0.603-1.509-1.287-2.136-1.867c-2.672-2.42-5.17-5.339-7.723-8.354
		c-1.426-1.688-2.883-3.413-4.412-5.125c2.384-2.156,4.661-4.385,6.849-6.855c2.704-3.06,5.147-6.139,7.772-8.874l0.989-1.002
		l0.494-0.503l0.482-0.428l0.197-0.179c0.87,0.557,1.772,1.081,2.749,1.524c2.874,1.337,6.294,1.881,9.46,1.438l1.873-0.263
		l0.367-1.714c0.129-0.599,0.264-1.188,0.368-1.801l0.075-0.989c0.026-0.325,0.043-0.656-0.004-1.031
		c-0.012-1.364-0.6-3.127-1.802-4.395c-1.215-1.293-2.83-1.896-4.222-2.107c-1.406-0.189-2.696-0.065-3.927,0.168
		c-1.219,0.263-2.369,0.675-3.468,1.201c-0.275,0.131-0.538,0.29-0.807,0.438l-0.4,0.226c-0.008,0-0.316,0.205-0.22,0.144
		l-0.077,0.055l-0.151,0.105l-0.29,0.205c-0.252-0.213-0.506-0.416-0.755-0.636c-1.967-1.727-3.886-3.688-5.998-5.595
		c-0.541-0.478-1.043-0.948-1.651-1.434l-0.19-0.156c0.707-0.885,1.362-1.784,1.99-2.676c1.616-2.308,3.063-4.609,4.652-6.668
		c0.388-0.531,0.803-1.012,1.219-1.488c0.403-0.503,0.852-0.92,1.289-1.357c0.423-0.464,0.915-0.792,1.374-1.183
		c0.235-0.21,0.462-0.356,0.686-0.484l0.411-0.265c0.39,0.737,0.779,1.473,1.169,2.213c0.651,1.224,1.266,2.428,2.048,3.715
		c0.207,0.331,0.385,0.634,0.77,1.095c0.214,0.26,0.568,0.546,0.646,0.595l0.407,0.313c0.224,0.195,0.665,0.461,1.033,0.691
		c0.374,0.255,0.797,0.403,1.199,0.598c0.872,0.315,1.903,0.572,3.093,0.346c1.197-0.216,2.275-1.048,2.855-1.936
		c1.17-1.82,1.235-3.661,1.028-5.349c-0.249-1.693-0.902-3.325-2.015-4.704c-1.078-1.397-2.687-2.439-4.39-2.913
		c-1.708-0.488-3.443-0.44-5.012-0.141c-0.398,0.069-0.791,0.147-1.162,0.266l-0.403,0.115c-1.588-2.777-3.276-5.53-5.204-8.179
		c0.277-0.144,0.552-0.293,0.831-0.455c0.164-0.098,0.317-0.183,0.526-0.325c0.241-0.162,0.265-0.174,0.502-0.372l0.808-0.708
		c4.293-3.803,7.518-8.448,10.493-13.076c2.99-4.764,5.25-9.891,7.094-15.111c1.842-5.229,3.239-10.566,4.657-15.869l2.113-7.955
		l2.049-7.99c0.718-2.658,1.26-5.352,1.889-8.027c0.617-2.679,1.217-5.358,1.792-8.038c1.148-5.366,2.382-10.714,3.602-16.067
		l-0.757-0.18c-1.323,5.326-2.659,10.649-3.912,15.998c-0.629,2.674-1.28,5.338-1.946,7.997c-0.68,2.655-1.274,5.336-2.038,7.964
		l-2.195,7.919l-2.268,7.918c-1.52,5.271-3.009,10.538-4.916,15.634c-1.911,5.09-4.203,10.009-7.142,14.5
		c-3.027,4.529-6.25,8.931-10.269,12.346l-0.752,0.636c-0.019,0.029-0.28,0.212-0.329,0.232l-0.355,0.206
		c-0.38,0.211-0.789,0.414-1.203,0.611c-0.47-0.544-0.964-1.078-1.491-1.597c-1.089-1.023-2.276-2.093-4.13-2.627
		c-0.432-0.162-1-0.147-1.502-0.173c-0.519,0.096-1.095,0.141-1.54,0.409c-0.234,0.116-0.47,0.236-0.69,0.367l-0.548,0.462
		c-0.384,0.297-0.647,0.684-0.933,1.055c-0.325,0.411-0.427,0.67-0.607,0.978l-0.248,0.451c-0.104,0.201-0.046,0.094-0.077,0.158
		l-0.029,0.068l-0.06,0.136l-0.117,0.272c-0.288,0.75-0.611,1.52-0.565,2.67c0.05,0.315,0.064,0.602,0.202,0.93
		c0.124,0.329,0.293,0.639,0.547,0.908c0.229,0.296,0.518,0.45,0.794,0.638c0.257,0.114,0.559,0.268,0.798,0.31
		c1.017,0.254,1.834,0.179,2.617,0.093c1.547-0.205,2.923-0.632,4.277-1.104c0.666-0.236,1.318-0.489,1.964-0.759
		c0.01,0.014,0.019,0.025,0.029,0.037c1.824,2.554,3.438,5.305,4.989,8.125c-1.312,0.764-2.419,1.598-3.396,2.524
		c-0.544,0.522-1.103,1.04-1.569,1.601c-0.495,0.551-0.984,1.104-1.413,1.676c-1.797,2.263-3.306,4.598-4.871,6.761
		c-0.661,0.914-1.339,1.791-2.037,2.621c-0.583-0.343-1.184-0.669-1.809-0.965c-1.441-0.668-3.054-1.201-4.875-1.279
		c-0.899-0.063-1.869,0.067-2.815,0.322c-0.952,0.278-1.882,0.769-2.681,1.446c-1.594,1.348-2.625,3.525-2.223,5.894
		c0.196,1.17,0.861,2.367,1.835,3.144c0.97,0.794,2.095,1.129,3.083,1.248c1.02,0.135,1.905,0.022,2.775-0.123
		c0.425-0.099,0.926-0.213,1.286-0.324l0.488-0.164l0.243-0.082l0.121-0.041l0.153-0.054l0.07-0.031
		c0.727-0.35,1.492-0.654,2.177-1.066c0.652-0.448,1.376-0.835,1.953-1.351c0.143-0.115,0.276-0.234,0.415-0.354l0.466,0.4
		c0.461,0.376,0.957,0.85,1.438,1.288c1.94,1.798,3.834,3.792,5.961,5.723c0.025,0.023,0.054,0.045,0.079,0.069l-0.002,0.002
		l-0.56,0.55l-1.119,1.101c-2.916,2.958-5.458,6.074-8.056,8.925c-2.029,2.233-4.31,4.396-6.643,6.438
		c-0.648-0.613-1.302-1.221-2.002-1.804c-0.766-0.688-1.8-1.445-2.658-2.082l-1.235-0.833c-0.582-0.395-1.162-0.699-1.757-0.998
		c-1.195-0.567-2.415-0.939-3.627-1.202c-2.427-0.482-4.812-0.488-7.112-0.174c-2.301,0.334-4.542,0.938-6.688,1.954
		c-2.133,1.008-4.242,2.357-5.967,4.541c-0.853,1.076-1.584,2.438-1.915,3.987c-0.345,1.543-0.236,3.202,0.202,4.641
		c0.458,1.428,1.176,2.619,1.957,3.646c0.401,0.519,0.894,1.042,1.329,1.507l0.545,0.508l0.273,0.254l0.137,0.127
		c-0.071-0.064,0.168,0.155,0.182,0.163l0.098,0.076c1.026,0.832,2.18,1.569,3.447,2.054c1.255,0.479,2.579,0.786,3.857,0.848
		c2.583,0.186,4.936-0.347,7.081-1.052c2.153-0.72,4.11-1.684,5.961-2.744c2.265-1.304,4.368-2.767,6.384-4.31
		c1.435,1.667,2.85,3.406,4.291,5.186c2.523,3.082,5.098,6.311,8.292,9.255c0.826,0.775,1.531,1.387,2.327,2.077
		c0.804,0.683,1.622,1.375,2.534,2.043c1.8,1.321,3.823,2.671,6.693,3.4c1.447,0.306,3.161,0.481,4.906-0.06
		c0.439-0.091,0.84-0.267,1.24-0.456c0.39-0.19,0.821-0.364,1.156-0.605c0.665-0.478,1.392-0.982,1.858-1.542l0.765-0.841
		c0.113-0.155-0.122,0.195,0.278-0.375l0.051-0.077l0.103-0.155l0.207-0.311l0.205-0.312c0.037-0.058,0.061-0.086,0.11-0.171
		l0.172-0.334c0.226-0.452,0.431-0.919,0.61-1.391c0.587-1.765,0.58-3.679,0.138-5.291c-0.457-1.553-1.136-2.762-1.799-3.807
		c-0.664-0.994-1.33-1.872-1.92-2.644c-0.568-0.756-1.108-1.479-1.41-2.016c-0.122-0.243-0.267-0.505-0.273-0.588
		c-0.008-0.021-0.02-0.043-0.033-0.063l-0.028-0.146l-0.143-0.729l-0.035-0.185c-0.008-0.05,0.003-0.056,0.002-0.086l0.006-0.144
		c0.003-0.099-0.014-0.184-0.021-0.291c0.051-0.254-0.004-0.552,0.08-0.774c0.047-0.511,0.275-0.866,0.445-1.192
		c0.438-0.584,0.871-0.832,1.598-0.821c0.094,0.012,0.187,0.016,0.284,0.011l0.32,0.08c0.212,0.006,0.458,0.18,0.699,0.241
		c0.123,0.042,0.249,0.143,0.375,0.208l0.193,0.104l0.097,0.051l0.003,0.002l0.473,0.358l0.148,0.113
		c0.042,0.035,0.028,0.04,0.045,0.058c0.02,0.032,0.041,0.063,0.065,0.091c0.056,0.037,0.302,0.345,0.509,0.591
		c0.208,0.268,0.414,0.582,0.623,0.895c0.404,0.67,0.805,1.391,1.17,2.197c0.745,1.588,1.404,3.349,2.072,5.195
		c0.691,1.859,1.308,3.777,2.377,5.96c0.911,1.783,1.724,3.522,2.755,5.361l1.495,2.716l1.566,2.64
		c1.028,1.764,2.187,3.464,3.294,5.186c1.191,1.675,2.316,3.391,3.598,5.004c4.949,6.565,10.738,12.57,17.307,17.605
		c3.308,2.478,6.735,4.809,10.371,6.77c3.602,2.059,7.332,3.682,11.221,5.242c7.585,2.882,15.699,4.833,23.926,5.367
		c8.203,0.54,16.766-0.521,24.334-4.207c7.289-3.635,14.064-9.17,18.122-16.367c2.045-3.58,3.404-7.497,4.164-11.474
		C196.408,191.34,196.557,187.301,196.409,183.313 M60.224,132.442c0.715-0.146,1.421-0.207,1.991-0.142
		c0.561,0.086,0.886,0.265,1.038,0.42c0.044,0.035,0.101,0.067,0.114,0.143c0.018,0.072,0.103,0.077,0.106,0.193
		c0.019,0.097,0.052,0.185,0.097,0.273c0.005,0.134,0.015,0.265,0.035,0.396c0.017,0.063,0.023,0.135,0.021,0.215
		c-1.582-0.032-3.128-0.381-4.626-1.036c-0.027-0.013-0.054-0.029-0.08-0.04C59.352,132.694,59.787,132.545,60.224,132.442
		 M60.287,106.02c1.113-0.231,2.196-0.249,3.137,0.007c0.938,0.253,1.761,0.749,2.376,1.522c0.635,0.746,1.057,1.741,1.222,2.756
		c0.173,1.001,0.003,2.081-0.335,2.587c-0.172,0.252-0.27,0.318-0.435,0.362c-0.173,0.045-0.527,0.001-0.94-0.133
		c-0.21-0.114-0.454-0.17-0.646-0.309c-0.212-0.137-0.382-0.19-0.687-0.436c-0.239-0.184-0.69-0.498-0.528-0.401
		c-0.056-0.061-0.257-0.335-0.411-0.585c-0.665-1.047-1.331-2.273-1.99-3.46c-0.342-0.618-0.683-1.236-1.025-1.856
		C60.111,106.055,60.199,106.036,60.287,106.02 M41.457,94.462c0.013-0.025-0.037-0.01,0.004-0.009
		c0.004,0.013,0.009,0.01,0.013,0.015C41.468,94.467,41.466,94.462,41.457,94.462 M46.783,93.673
		c-1.239,0.411-2.514,0.762-3.693,0.891c-0.576,0.065-1.156,0.053-1.472-0.044c-0.083-0.01-0.1-0.034-0.135-0.048
		c0.003-0.009,0.004-0.023-0.009-0.059c-0.022-0.236,0.14-0.798,0.371-1.305l0.09-0.197l0.045-0.1l0.022-0.05
		c-0.005,0.008,0-0.003,0.005-0.014l0.226-0.391c0.168-0.282,0.355-0.653,0.493-0.758c0.147-0.158,0.257-0.358,0.438-0.467
		c0.081-0.065,0.158-0.133,0.235-0.206c0.08-0.032,0.155-0.058,0.227-0.098c0.139-0.12,0.294-0.048,0.432-0.121
		c0.175,0.058,0.315-0.013,0.529,0.093c0.804,0.229,1.796,0.994,2.651,1.873c0.193,0.198,0.375,0.421,0.565,0.63
		C47.463,93.426,47.125,93.56,46.783,93.673 M36.946,122.919c-0.492,0.288-1.022,0.468-1.524,0.722l-0.036,0.018l-0.104,0.033
		l-0.246,0.078l-0.489,0.157c-0.299,0.084-0.474,0.099-0.713,0.162c-0.481,0.069-0.976,0.12-1.32,0.051
		c-0.364-0.048-0.599-0.153-0.694-0.244c-0.096-0.091-0.139-0.17-0.17-0.353c-0.071-0.363,0.151-1.04,0.669-1.423
		c0.954-0.882,3.14-0.748,5.194,0.301c0.041,0.021,0.08,0.042,0.12,0.064C37.401,122.626,37.169,122.761,36.946,122.919
		 M22.212,157.646c-1.605,0.889-3.249,1.647-4.875,2.156c-1.618,0.509-3.236,0.799-4.625,0.656
		c-1.411-0.103-2.538-0.617-3.554-1.466l-0.04-0.031l-0.099-0.094l-0.268-0.26l-0.537-0.517c-0.222-0.277-0.41-0.479-0.613-0.747
		c-0.408-0.559-0.697-1.104-0.841-1.575c-0.113-0.469-0.12-0.845-0.028-1.24c0.085-0.393,0.303-0.84,0.694-1.305
		c0.752-0.937,2.053-1.843,3.513-2.48c2.924-1.31,6.529-1.754,9.464-1.098c0.721,0.18,1.405,0.405,2,0.706
		c0.284,0.155,0.585,0.318,0.82,0.486l1.218,0.857c0.711,0.571,1.285,0.99,1.986,1.641c0.345,0.297,0.682,0.61,1.016,0.929
		C25.739,155.504,23.999,156.655,22.212,157.646"/>
</g>
</svg>
